<?xml version="1.0" encoding="UTF-8" standalone="no"?>
<!-- Created with Inkscape (http://www.inkscape.org/) -->

<svg
   width="46"
   height="46"
   viewBox="0 0 12.170833 12.170833"
   version="1.1"
   id="svg1"
   xml:space="preserve"
   xmlns="http://www.w3.org/2000/svg"
   xmlns:svg="http://www.w3.org/2000/svg"><defs
     id="defs1" /><g
     id="layer9"><path
       style="fill:none;stroke:#b3b3b3;stroke-width:0.573726;stroke-linecap:round;stroke-linejoin:round;stroke-miterlimit:12.8;stroke-dasharray:none;stroke-opacity:1;paint-order:markers fill stroke"
       id="path5"
       d="m 6.0854165,12.170834 c -1.9810735,0 -0.079538,-1.985507 -1.7951981,-2.9760436 C 2.5745585,8.2042538 1.8058271,10.843785 0.81529045,9.1281251 -0.17524629,7.4124651 2.4950204,8.0664898 2.4950204,6.0854163 2.4950203,4.1043429 -0.1752464,4.7583677 0.81529029,3.0427078 1.805827,1.3270479 2.5745584,3.966579 4.2902183,2.9760422 6.0058782,1.9855055 4.1043428,-9.4893616e-7 6.0854162,-9.5367431e-7 8.0664896,-9.5841247e-7 6.1649543,1.9855055 7.8806143,2.9760422 c 1.7156599,0.9905367 2.4843907,-1.6489945 3.4749277,0.066665 0.990537,1.71566 -1.6797298,1.0616353 -1.6797298,3.0427088 1e-7,1.9810734 2.6702668,1.3270486 1.6797298,3.0427085 C 10.365006,10.843785 9.5962742,8.2042536 7.8806143,9.1947904 6.1649544,10.185327 8.0664899,12.170834 6.0854165,12.170834 Z"
       transform="matrix(0.82977681,0,0,0.83042287,1.0358792,1.0319476)" /><ellipse
       style="fill:none;stroke:#b3b3b3;stroke-width:0.47625;stroke-linecap:round;stroke-linejoin:round;stroke-miterlimit:12.8;stroke-dasharray:none;stroke-opacity:1;paint-order:markers fill stroke"
       id="path11"
       cx="6.0854163"
       cy="6.0854163"
       rx="1.9246556"
       ry="1.8790466" /></g><g
     id="layer3"><rect
       style="fill:none;fill-opacity:0;stroke:none;stroke-width:0.264583;stroke-linecap:round"
       id="rect1"
       width="12.170834"
       height="12.170834"
       x="-2.9382323e-07"
       y="-2.9382323e-07" /></g></svg>
