<?xml version="1.0" encoding="UTF-8" standalone="no"?>
<!-- Created with Inkscape (http://www.inkscape.org/) -->

<svg
   width="46"
   height="46"
   viewBox="0 0 12.170833 12.170833"
   version="1.1"
   id="svg1"
   xml:space="preserve"
   xmlns="http://www.w3.org/2000/svg"
   xmlns:svg="http://www.w3.org/2000/svg"><defs
     id="defs1" /><g
     id="layer3"><rect
       style="fill:none;fill-opacity:0;stroke:none;stroke-width:0.264583;stroke-linecap:round"
       id="rect1"
       width="12.170834"
       height="12.170834"
       x="-2.9382323e-07"
       y="-2.9382323e-07" /></g><g
     id="layer5"><ellipse
       style="fill:none;stroke:#b3b3b3;stroke-width:0.47625;stroke-linecap:round;stroke-linejoin:round;stroke-miterlimit:12.8;paint-order:markers fill stroke"
       id="path2"
       cx="6.0854163"
       cy="6.0854163"
       rx="5.3520484"
       ry="5.3537374" /><ellipse
       style="fill:none;stroke:#b3b3b3;stroke-width:0.47625;stroke-linecap:round;stroke-linejoin:round;stroke-miterlimit:12.8;paint-order:markers fill stroke"
       id="path2-3"
       cx="6.0854163"
       cy="6.0854163"
       rx="3.8629165"
       ry="3.8641555" /><ellipse
       style="fill:none;stroke:#b3b3b3;stroke-width:0.47625;stroke-linecap:round;stroke-linejoin:round;stroke-miterlimit:12.8;paint-order:markers fill stroke"
       id="path2-1"
       cx="6.0854163"
       cy="6.0854163"
       rx="2.3764274"
       ry="2.3771973" /></g><g
     id="layer7"><path
       style="fill:none;fill-opacity:1;stroke:#ffcc00;stroke-width:2.47822;stroke-linecap:round;stroke-linejoin:round;stroke-miterlimit:12.8;stroke-dasharray:none;stroke-opacity:1;paint-order:markers fill stroke"
       id="path23"
       d="m -7.3510474,15.539993 c -0.4225412,0 -0.8142646,-3.07761 -1.1561076,-3.325974 -0.341843,-0.248363 -3.389873,0.33012 -3.520445,-0.07174 -0.130573,-0.40186 2.675359,-1.725445 2.8059314,-2.127306 0.1305723,-0.4018601 -1.3614904,-3.1219478 -1.0196474,-3.3703113 0.3418428,-0.2483634 2.4677274,2.011226 2.8902686,2.011226 0.4225411,-10e-8 2.5484254,-2.2595896 2.8902684,-2.0112261 0.341843,0.2483635 -1.1502198,2.9684514 -1.0196473,3.3703124 0.1305724,0.40186 2.9365041,1.725445 2.8059317,2.127305 -0.1305724,0.401861 -3.1786025,-0.176622 -3.5204455,0.07174 -0.341843,0.248363 -0.7335661,3.325973 -1.1561073,3.325973 z"
       transform="matrix(0.02835475,0.09152789,-0.09212504,0.0282382,2.6032249,1.7190156)" /><path
       style="fill:none;fill-opacity:1;stroke:#ffcc00;stroke-width:2.47822;stroke-linecap:round;stroke-linejoin:round;stroke-miterlimit:12.8;stroke-dasharray:none;stroke-opacity:1;paint-order:markers fill stroke"
       id="path23-9"
       d="m -7.3510474,15.539993 c -0.4225412,0 -0.8142646,-3.07761 -1.1561076,-3.325974 -0.341843,-0.248363 -3.389873,0.33012 -3.520445,-0.07174 -0.130573,-0.40186 2.675359,-1.725445 2.8059314,-2.127306 0.1305723,-0.4018601 -1.3614904,-3.1219478 -1.0196474,-3.3703113 0.3418428,-0.2483634 2.4677274,2.011226 2.8902686,2.011226 0.4225411,-10e-8 2.5484254,-2.2595896 2.8902684,-2.0112261 0.341843,0.2483635 -1.1502198,2.9684514 -1.0196473,3.3703124 0.1305724,0.40186 2.9365041,1.725445 2.8059317,2.127305 -0.1305724,0.401861 -3.1786025,-0.176622 -3.5204455,0.07174 -0.341843,0.248363 -0.7335661,3.325973 -1.1561073,3.325973 z"
       transform="matrix(0.02835475,0.09152789,-0.09212504,0.0282382,12.065143,1.7190156)" /><path
       style="fill:none;fill-opacity:1;stroke:#ffcc00;stroke-width:2.47822;stroke-linecap:round;stroke-linejoin:round;stroke-miterlimit:12.8;stroke-dasharray:none;stroke-opacity:1;paint-order:markers fill stroke"
       id="path23-6"
       d="m -7.3510474,15.539993 c -0.4225412,0 -0.8142646,-3.07761 -1.1561076,-3.325974 -0.341843,-0.248363 -3.389873,0.33012 -3.520445,-0.07174 -0.130573,-0.40186 2.675359,-1.725445 2.8059314,-2.127306 0.1305723,-0.4018601 -1.3614904,-3.1219478 -1.0196474,-3.3703113 0.3418428,-0.2483634 2.4677274,2.011226 2.8902686,2.011226 0.4225411,-10e-8 2.5484254,-2.2595896 2.8902684,-2.0112261 0.341843,0.2483635 -1.1502198,2.9684514 -1.0196473,3.3703124 0.1305724,0.40186 2.9365041,1.725445 2.8059317,2.127305 -0.1305724,0.401861 -3.1786025,-0.176622 -3.5204455,0.07174 -0.341843,0.248363 -0.7335661,3.325973 -1.1561073,3.325973 z"
       transform="matrix(0.02835475,0.09152789,-0.09212504,0.0282382,12.065143,11.400094)" /><path
       style="fill:none;fill-opacity:1;stroke:#ffcc00;stroke-width:2.47822;stroke-linecap:round;stroke-linejoin:round;stroke-miterlimit:12.8;stroke-dasharray:none;stroke-opacity:1;paint-order:markers fill stroke"
       id="path23-8"
       d="m -7.3510474,15.539993 c -0.4225412,0 -0.8142646,-3.07761 -1.1561076,-3.325974 -0.341843,-0.248363 -3.389873,0.33012 -3.520445,-0.07174 -0.130573,-0.40186 2.675359,-1.725445 2.8059314,-2.127306 0.1305723,-0.4018601 -1.3614904,-3.1219478 -1.0196474,-3.3703113 0.3418428,-0.2483634 2.4677274,2.011226 2.8902686,2.011226 0.4225411,-10e-8 2.5484254,-2.2595896 2.8902684,-2.0112261 0.341843,0.2483635 -1.1502198,2.9684514 -1.0196473,3.3703124 0.1305724,0.40186 2.9365041,1.725445 2.8059317,2.127305 -0.1305724,0.401861 -3.1786025,-0.176622 -3.5204455,0.07174 -0.341843,0.248363 -0.7335661,3.325973 -1.1561073,3.325973 z"
       transform="matrix(0.02835475,0.09152789,-0.09212504,0.0282382,10.167452,9.0315212)" /><path
       style="fill:none;fill-opacity:1;stroke:#ffcc00;stroke-width:2.47822;stroke-linecap:round;stroke-linejoin:round;stroke-miterlimit:12.8;stroke-dasharray:none;stroke-opacity:1;paint-order:markers fill stroke"
       id="path23-0"
       d="m -7.3510474,15.539993 c -0.4225412,0 -0.8142646,-3.07761 -1.1561076,-3.325974 -0.341843,-0.248363 -3.389873,0.33012 -3.520445,-0.07174 -0.130573,-0.40186 2.675359,-1.725445 2.8059314,-2.127306 0.1305723,-0.4018601 -1.3614904,-3.1219478 -1.0196474,-3.3703113 0.3418428,-0.2483634 2.4677274,2.011226 2.8902686,2.011226 0.4225411,-10e-8 2.5484254,-2.2595896 2.8902684,-2.0112261 0.341843,0.2483635 -1.1502198,2.9684514 -1.0196473,3.3703124 0.1305724,0.40186 2.9365041,1.725445 2.8059317,2.127305 -0.1305724,0.401861 -3.1786025,-0.176622 -3.5204455,0.07174 -0.341843,0.248363 -0.7335661,3.325973 -1.1561073,3.325973 z"
       transform="matrix(0.02835475,0.09152789,-0.09212504,0.0282382,3.4772796,10.304981)" /><path
       style="fill:none;fill-opacity:1;stroke:#ffcc00;stroke-width:2.47822;stroke-linecap:round;stroke-linejoin:round;stroke-miterlimit:12.8;stroke-dasharray:none;stroke-opacity:1;paint-order:markers fill stroke"
       id="path23-5"
       d="m -7.3510474,15.539993 c -0.4225412,0 -0.8142646,-3.07761 -1.1561076,-3.325974 -0.341843,-0.248363 -3.389873,0.33012 -3.520445,-0.07174 -0.130573,-0.40186 2.675359,-1.725445 2.8059314,-2.127306 0.1305723,-0.4018601 -1.3614904,-3.1219478 -1.0196474,-3.3703113 0.3418428,-0.2483634 2.4677274,2.011226 2.8902686,2.011226 0.4225411,-10e-8 2.5484254,-2.2595896 2.8902684,-2.0112261 0.341843,0.2483635 -1.1502198,2.9684514 -1.0196473,3.3703124 0.1305724,0.40186 2.9365041,1.725445 2.8059317,2.127305 -0.1305724,0.401861 -3.1786025,-0.176622 -3.5204455,0.07174 -0.341843,0.248363 -0.7335661,3.325973 -1.1561073,3.325973 z"
       transform="matrix(0.02835475,0.09152789,-0.09212504,0.0282382,4.9303636,5.8686424)" /></g></svg>
