<?xml version="1.0" encoding="UTF-8" standalone="no"?>
<!-- Created with Inkscape (http://www.inkscape.org/) -->

<svg
   width="48"
   height="48"
   viewBox="0 0 12.7 12.7"
   version="1.1"
   id="svg1"
   xmlns="http://www.w3.org/2000/svg"
   xmlns:svg="http://www.w3.org/2000/svg">
  <defs
     id="defs1" />
  <g
     id="layer1"
     transform="matrix(1.0909091,0,0,1.0909091,-0.5772727,-0.57727309)"
     style="display:inline;fill:none;stroke:none">
    <rect
       style="fill:none;stroke:none;stroke-width:1.45521;stroke-miterlimit:0"
       id="rect34"
       width="11.641666"
       height="11.641666"
       x="0.52916664"
       y="0.529167" />
  </g>
  <g
     id="layer7">
    <path
       style="font-size:10.5833px;font-family:'open sans light astro';-inkscape-font-specification:'open sans light astro Light';fill:#ffffff;stroke:#000000;stroke-width:0.185208;stroke-linecap:round;stroke-linejoin:round;stroke-miterlimit:0;stroke-dasharray:none;stroke-opacity:1"
       d="m 8.1431665,2.2862768 c 0.620115,0 1.147213,0.220486 1.581294,0.661457 0.4409715,0.43408 0.6614565,0.957733 0.6614565,1.570958 0,0.7165767 -0.285942,1.3022417 -0.8578265,1.7569927 l -0.527098,-0.744138 c 0.316948,-0.261827 0.475422,-0.599445 0.475422,-1.0128547 0,-0.40652 -0.161919,-0.747583 -0.485757,-1.02319 -0.254937,-0.206705 -0.537434,-0.310058 -0.847491,-0.310058 -0.358289,0 -0.664901,0.124023 -0.919838,0.372069 -0.130913,0.124023 -0.234265,0.268717 -0.310057,0.434081 -0.0689,0.172254 -0.103353,0.344508 -0.103353,0.516763 V 10.368445 H 5.9004165 V 4.5083568 c 0,-0.385849 -0.148139,-0.709687 -0.444416,-0.971514 -0.261827,-0.234266 -0.561549,-0.351399 -0.899167,-0.351399 -0.385849,0 -0.716577,0.148139 -0.992184,0.444416 -0.227376,0.261827 -0.341064,0.558104 -0.341064,0.888832 0,0.4065197 0.155029,0.7441377 0.465087,1.0128547 l -0.527098,0.744138 c -0.564994,-0.447861 -0.847491,-1.033525 -0.847491,-1.7569927 0,-0.571884 0.192925,-1.071421 0.578774,-1.498612 0.447861,-0.489202 1.00252,-0.733803 1.663976,-0.733803 0.378959,0 0.720023,0.07579 1.02319,0.227376 0.303167,0.144693 0.568439,0.368624 0.795815,0.671791 0.227375,-0.303167 0.482311,-0.527098 0.764808,-0.671791 0.289387,-0.151584 0.623561,-0.227376 1.00252,-0.227376 z"
       id="text1-3"
       aria-label="ƒ Ɠ Ɣ ƕ Ɩ Ɨ Ƙ ƙ ƚ ƛ Ɯ Ɲ" />
  </g>
</svg>
