<?xml version="1.0" encoding="UTF-8" standalone="no"?>
<!-- Created with Inkscape (http://www.inkscape.org/) -->

<svg
   width="48"
   height="48"
   viewBox="0 0 12.7 12.7"
   version="1.1"
   id="svg1"
   xmlns="http://www.w3.org/2000/svg"
   xmlns:svg="http://www.w3.org/2000/svg">
  <defs
     id="defs1" />
  <g
     id="layer1"
     transform="matrix(1.0909091,0,0,1.0909091,-0.5772727,-0.57727309)"
     style="display:inline;fill:none;stroke:none">
    <rect
       style="fill:none;stroke:none;stroke-width:1.45521;stroke-miterlimit:0"
       id="rect34"
       width="11.641666"
       height="11.641666"
       x="0.52916664"
       y="0.529167" />
  </g>
  <g
     id="layer7">
    <path
       style="font-size:10.5833px;font-family:'open sans light astro';-inkscape-font-specification:'open sans light astro Light';fill:#ffffff;stroke:#000000;stroke-width:0.185208;stroke-linecap:round;stroke-linejoin:round;stroke-miterlimit:0;stroke-dasharray:none;stroke-opacity:1"
       d="m 6.35,4.8907605 c -0.7441377,0 -1.3676971,0.275607 -1.8706798,0.82682 -0.220485,0.241156 -0.385849,0.502983 -0.496092,0.78548 -0.1102427,0.275607 -0.1653637,0.578774 -0.1653637,0.909502 0,0.654566 0.2204847,1.223005 0.6614557,1.705317 0.5029827,0.551213 1.1265421,0.82682 1.8706798,0.82682 0.6476757,0 1.2126694,-0.220485 1.6949811,-0.661456 0.5581027,-0.496092 0.8371544,-1.119652 0.8371544,-1.870681 0,-0.682127 -0.2480457,-1.274681 -0.7441374,-1.777664 C 7.6419064,5.1388065 7.0459067,4.8907605 6.35,4.8907605 Z M 8.1483331,4.4360098 c 0.5443227,0.330728 0.9680684,0.7785887 1.2712351,1.3435827 0.137803,0.254936 0.241156,0.516762 0.310058,0.785479 0.0689,0.268717 0.1033517,0.551214 0.1033517,0.847491 0,0.475422 -0.08957,0.926728 -0.2687157,1.353918 -0.186035,0.427191 -0.4375257,0.79926 -0.7544737,1.116208 C 8.4928418,10.199635 8.1207731,10.447681 7.6935821,10.626826 7.2732824,10.812861 6.8254217,10.905878 6.35,10.905878 c -0.4823117,0 -0.9336174,-0.09302 -1.3539171,-0.279052 C 4.5757819,10.447681 4.2071582,10.199635 3.8902115,9.8826885 3.5457025,9.5381795 3.2873218,9.1626655 3.1150678,8.7561455 2.9497038,8.3427355 2.8670221,7.8948745 2.8670221,7.4125625 c 0,-0.585665 0.1343577,-1.129988 0.4030737,-1.63297 C 3.5732635,5.2145985 4.0004542,4.7667378 4.5516669,4.4360098 4.1038062,4.1604028 3.7351825,3.8090048 3.4457955,3.3818138 3.2184198,3.0373048 3.0565008,2.6721258 2.9600388,2.2862768 h 1.0541954 c 0.144693,0.420301 0.396184,0.775144 0.7544727,1.064531 0.4547507,0.38585 0.9818484,0.578775 1.5812931,0.578775 0.5236527,0 1.0025184,-0.155029 1.4365991,-0.465087 0.4134097,-0.296277 0.7096867,-0.689017 0.8888317,-1.178219 h 1.0541954 c -0.103353,0.440971 -0.292832,0.850936 -0.5684387,1.229895 -0.282497,0.378959 -0.6201147,0.685572 -1.0128544,0.919838 z"
       id="path24"
       aria-label="ƒ Ɠ Ɣ ƕ Ɩ Ɨ Ƙ ƙ ƚ ƛ Ɯ Ɲ" />
  </g>
</svg>
