<?xml version="1.0" encoding="UTF-8" standalone="no"?>
<!-- Created with Inkscape (http://www.inkscape.org/) -->

<svg
   width="48"
   height="48"
   viewBox="0 0 12.7 12.7"
   version="1.1"
   id="svg1"
   xmlns="http://www.w3.org/2000/svg"
   xmlns:svg="http://www.w3.org/2000/svg">
  <defs
     id="defs1" />
  <g
     id="layer1"
     transform="matrix(1.0909091,0,0,1.0909091,-0.5772727,-0.57727309)"
     style="display:inline;fill:none;stroke:none">
    <rect
       style="fill:none;stroke:none;stroke-width:1.45521;stroke-miterlimit:0"
       id="rect34"
       width="11.641666"
       height="11.641666"
       x="0.52916664"
       y="0.529167" />
  </g>
  <g
     id="layer7">
    <path
       style="font-size:10.5833px;font-family:'open sans light astro';-inkscape-font-specification:'open sans light astro Light';fill:#ffffff;stroke:#000000;stroke-width:0.185208;stroke-linecap:round;stroke-linejoin:round;stroke-miterlimit:0;stroke-dasharray:none;stroke-opacity:1"
       d="m 6.3396649,3.9295828 c -0.468532,0 -0.912948,-0.04479 -1.333248,-0.134359 v 5.0642747 c 0.440971,-0.08957 0.885387,-0.134359 1.333248,-0.134359 0.4616407,0 0.9060567,0.04479 1.3332467,0.134359 V 3.7952238 c -0.447861,0.08957 -0.892276,0.134359 -1.3332467,0.134359 z M 4.1279199,9.0868735 V 3.5471778 c -0.440971,-0.199815 -0.785479,-0.389294 -1.033525,-0.568439 0.130913,-0.158474 0.323838,-0.39274 0.578774,-0.702797 0.640786,0.551213 1.529618,0.82682 2.666496,0.82682 1.1644387,-0.04134 2.0532697,-0.316947 2.6664947,-0.82682 0.130913,0.144693 0.330728,0.358289 0.5994449,0.640786 -0.2067049,0.220485 -0.5615489,0.430635 -1.0645309,0.63045 v 5.5396957 c 0.447861,0.289387 0.771699,0.527098 0.971514,0.713133 L 8.9854896,10.358109 C 8.3998246,9.7862255 7.5178836,9.5106185 6.3396649,9.5312895 c -1.150659,0.05512 -2.036045,0.330727 -2.65616,0.8268195 -0.130913,-0.110243 -0.327283,-0.279052 -0.58911,-0.5064265 0.261827,-0.234266 0.606335,-0.489202 1.033525,-0.764809 z"
       id="path25"
       aria-label="ƒ Ɠ Ɣ ƕ Ɩ Ɨ Ƙ ƙ ƚ ƛ Ɯ Ɲ" />
  </g>
</svg>
