<?xml version="1.0" encoding="UTF-8" standalone="no"?>
<!-- Created with Inkscape (http://www.inkscape.org/) -->

<svg
   width="48"
   height="48"
   viewBox="0 0 12.7 12.7"
   version="1.1"
   id="svg1"
   xmlns="http://www.w3.org/2000/svg"
   xmlns:svg="http://www.w3.org/2000/svg">
  <defs
     id="defs1" />
  <g
     id="layer1"
     transform="matrix(1.0909091,0,0,1.0909091,-0.5772727,-0.57727309)"
     style="display:inline;fill:none;stroke:none">
    <rect
       style="fill:none;stroke:none;stroke-width:1.45521;stroke-miterlimit:0"
       id="rect34"
       width="11.641666"
       height="11.641666"
       x="0.52916664"
       y="0.529167" />
  </g>
  <g
     id="layer7">
    <path
       style="font-size:10.5833px;font-family:'open sans light astro';-inkscape-font-specification:'open sans light astro Light';fill:#ffffff;stroke:#000000;stroke-width:0.185208;stroke-linecap:round;stroke-linejoin:round;stroke-miterlimit:0;stroke-dasharray:none;stroke-opacity:1"
       d="m 4.2829489,5.6969105 c 0.537433,0 0.995629,0.18948 1.374588,0.568439 0.3858501,0.385849 0.5787751,0.850936 0.5787751,1.395259 0,0.358289 -0.08613,0.689017 -0.258382,0.992184 -0.1791441,0.303168 -0.4203001,0.540879 -0.7234681,0.713133 0.158474,0.04134 0.323838,0.07579 0.496093,0.103352 0.172254,0.03445 0.3341731,0.05168 0.485757,0.05168 0.41341,0 0.7820341,-0.03445 1.105872,-0.103353 0.372069,-0.07579 0.7234671,-0.19637 1.0541958,-0.361734 0.8543807,-0.4203 1.5158364,-1.05075 1.9843673,-1.891351 v 1.477941 c -0.248046,0.261827 -0.5167629,0.496092 -0.8061499,0.702797 -0.2893867,0.199815 -0.6028887,0.37896 -0.9405074,0.537434 -0.3789587,0.1722535 -0.7716988,0.2997215 -1.1782178,0.3824035 -0.40652,0.07579 -0.823375,0.113688 -1.250566,0.113688 -0.220485,0 -0.440971,-0.01723 -0.661456,-0.05168 -0.220486,-0.03445 -0.468532,-0.09302 -0.744139,-0.1757 C 4.2898389,10.0136 3.828198,9.8034505 3.414787,9.5209535 3.090949,9.3004685 2.8256782,9.0351965 2.6189732,8.7251385 c -0.199815,-0.310057 -0.299723,-0.664901 -0.299723,-1.064531 0,-0.537433 0.18948,-0.999075 0.568439,-1.384924 0.3858497,-0.385849 0.8509368,-0.578774 1.3952597,-0.578773 z m 0,0.868161 c -0.3100579,0 -0.5718849,0.110243 -0.7854799,0.330728 -0.206705,0.227376 -0.310057,0.482312 -0.310057,0.764809 0,0.303167 0.103352,0.561549 0.310057,0.775144 0.213595,0.213595 0.475422,0.320393 0.7854799,0.320393 0.316947,0 0.585664,-0.120578 0.806149,-0.361734 0.186035,-0.213595 0.279052,-0.458196 0.279052,-0.733803 0,-0.316948 -0.117133,-0.585665 -0.351398,-0.80615 -0.110243,-0.09646 -0.223931,-0.168809 -0.341064,-0.21704 -0.124023,-0.04823 -0.254936,-0.07235 -0.392739,-0.07235 z m 4.1341008,0.403075 c -0.6132248,0 -1.1162068,-0.241156 -1.5089468,-0.723468 -0.303167,-0.365179 -0.454751,-0.782034 -0.454751,-1.250565 0,-0.179145 0.02412,-0.3513987 0.07235,-0.5167627 0.04134,-0.165364 0.1102421,-0.327283 0.2067051,-0.485757 0.158474,-0.275607 0.396185,-0.509872 0.713132,-0.702797 -0.199815,-0.04823 -0.375514,-0.08613 -0.527098,-0.113688 -0.151583,-0.02756 -0.303167,-0.04134 -0.454751,-0.04134 -0.427191,0 -0.8302661,0.04134 -1.2092251,0.124023 -0.372069,0.08268 -0.733802,0.21704 -1.085201,0.403075 C 3.370004,4.1018378 2.7533342,4.7081728 2.3192532,5.4798715 V 4.0122658 c 0.461641,-0.489202 0.9990748,-0.881942 1.6122998,-1.178219 0.3996299,-0.199815 0.8095949,-0.344509 1.2298949,-0.434081 0.427191,-0.08957 0.8716071,-0.134358 1.3332481,-0.134358 0.179145,0 0.365179,0.01723 0.558104,0.05168 0.199815,0.02756 0.423745,0.07579 0.671791,0.144694 0.454751,0.117133 0.8784967,0.282497 1.2712354,0.496092 0.39274,0.220485 0.7200227,0.499537 0.9818484,0.837155 0.2687172,0.337619 0.4030752,0.737249 0.4030752,1.1988897 0,0.537433 -0.192925,0.999074 -0.5787739,1.384924 -0.385849,0.392739 -0.8474907,0.589109 -1.3849234,0.589109 z m 0,-0.878496 c 0.303167,0 0.5615487,-0.106798 0.7751437,-0.320393 0.213595,-0.213595 0.3203927,-0.471977 0.3203927,-0.775144 0,-0.3169477 -0.1205778,-0.5891097 -0.3617338,-0.8164847 -0.103353,-0.08957 -0.21704,-0.158474 -0.3410627,-0.206705 -0.117133,-0.04823 -0.248047,-0.07235 -0.39274,-0.07235 -0.2824966,0 -0.5270977,0.09302 -0.7338027,0.279052 -0.241156,0.220485 -0.361734,0.492647 -0.361734,0.8164847 0,0.303167 0.106798,0.561549 0.320393,0.775144 0.213595,0.213595 0.471977,0.320393 0.7751437,0.320393 z"
       id="path26"
       aria-label="ƒ Ɠ Ɣ ƕ Ɩ Ɨ Ƙ ƙ ƚ ƛ Ɯ Ɲ" />
  </g>
</svg>
