<?xml version="1.0" encoding="UTF-8" standalone="no"?>
<!-- Created with Inkscape (http://www.inkscape.org/) -->

<svg
   width="48"
   height="48"
   viewBox="0 0 12.7 12.7"
   version="1.1"
   id="svg1"
   xmlns="http://www.w3.org/2000/svg"
   xmlns:svg="http://www.w3.org/2000/svg">
  <defs
     id="defs1" />
  <g
     id="layer1"
     transform="matrix(1.0909091,0,0,1.0909091,-0.5772727,-0.57727309)"
     style="display:inline;fill:none;stroke:none">
    <rect
       style="fill:none;stroke:none;stroke-width:1.45521;stroke-miterlimit:0"
       id="rect34"
       width="11.641666"
       height="11.641666"
       x="0.52916664"
       y="0.529167" />
  </g>
  <g
     id="layer7">
    <path
       style="font-size:10.5833px;font-family:'open sans light astro';-inkscape-font-specification:'open sans light astro Light';fill:#ffffff;stroke:#000000;stroke-width:0.185208;stroke-linecap:round;stroke-linejoin:round;stroke-miterlimit:0;stroke-dasharray:none;stroke-opacity:1"
       d="m 3.8408221,6.4221598 c -0.199815,0 -0.375515,0.0724 -0.527098,0.21704 -0.144694,0.14469 -0.217041,0.32039 -0.217041,0.5271 0,0.18603 0.06546,0.34795 0.19637,0.48575 0.144693,0.15847 0.327283,0.23771 0.547769,0.23771 0.192925,0 0.368624,-0.0689 0.527097,-0.2067 0.151584,-0.13781 0.227376,-0.31006 0.227376,-0.51676 0,-0.2136 -0.08268,-0.39619 -0.248046,-0.54777 -0.144693,-0.13091 -0.313502,-0.19637 -0.506427,-0.19637 z m 6.5008739,4.4958372 c -0.4409712,0.5581 -0.9715142,0.83715 -1.5916292,0.83715 -0.303167,0 -0.575329,-0.0724 -0.816485,-0.21704 -0.241156,-0.14469 -0.451306,-0.33417 -0.6304507,-0.56844 -0.268716,-0.37207 -0.403074,-0.75791 -0.403074,-1.157541 0,-0.0896 0.0034,-0.1722597 0.01034,-0.2480497 0.07579,-0.4823065 0.237711,-0.9715165 0.4857567,-1.4676065 0.144693,-0.24115 0.361734,-0.60289 0.651121,-1.0852 0.103353,-0.17915 0.310058,-0.53399 0.620115,-1.06453 0.227375,-0.40652 0.396184,-0.75447 0.506427,-1.04386 0.124023,-0.32384 0.186035,-0.60634 0.186035,-0.847494 0,-0.3513987 -0.08268,-0.6649007 -0.248046,-0.9405077 -0.172254,-0.296277 -0.444416,-0.561549 -0.816485,-0.795814 -0.440971,-0.289387 -0.933618,-0.434081 -1.4779407,-0.434081 -0.38585,0 -0.751029,0.07235 -1.095537,0.21704 -0.337619,0.144694 -0.623561,0.354844 -0.857826,0.630451 -0.330729,0.440971 -0.496093,0.912946 -0.496093,1.4159257 0,0.13781 0.01378,0.2825 0.04134,0.43408 0.08268,0.48231 0.316949,1.04042 0.702798,1.67431 0.199815,0.26872 0.299722,0.57189 0.299722,0.90951 0,0.4203 -0.155029,0.77859 -0.465086,1.07486 -0.303167,0.29628 -0.671791,0.44442 -1.105872,0.44442 -0.454751,0 -0.840601,-0.16536 -1.157549,-0.49609 -0.2687171,-0.29628 -0.4030751,-0.63734 -0.4030751,-1.02319 0,-0.40652 0.141249,-0.75792 0.4237461,-1.0542 0.144693,-0.15847 0.299722,-0.27561 0.465086,-0.3514 0.186035,-0.0896 0.378959,-0.13436 0.578774,-0.13436 -0.144693,-0.33073 -0.254936,-0.64423 -0.330728,-0.9405 -0.07579,-0.29628 -0.113688,-0.56155 -0.113688,-0.7958177 0,-0.241156 0.04823,-0.489202 0.144694,-0.744138 0.103353,-0.254936 0.251491,-0.523653 0.444416,-0.80615 0.323838,-0.475421 0.768254,-0.830265 1.333248,-1.064531 0.468531,-0.186035 0.999074,-0.27905197 1.591629,-0.27905197 0.303167,0 0.5925537,0.02412 0.8681607,0.07235 0.275607,0.04823 0.520208,0.117135 0.733803,0.206705 0.585664,0.254937 1.040415,0.58222 1.364253,0.981849 0.3720692,0.468532 0.5581042,1.026636 0.5581042,1.674311 0,0.7579137 -0.279052,1.5916237 -0.8371562,2.5011337 -0.351398,0.5581 -0.682126,1.06108 -0.992184,1.50894 -0.316948,0.47543 -0.527098,0.93362 -0.63045,1.3745895 -0.03445,0.144697 -0.05168,0.292837 -0.05168,0.444417 0,0.2411607 0.05512,0.4616507 0.165364,0.6614607 0.151584,0.25493 0.39274,0.39274 0.723468,0.41341 h 0.07235 0.08268 c 0.248046,-0.0345 0.506427,-0.17572 0.775144,-0.42375 0.275607,-0.24805 0.5064272,-0.5202106 0.6924622,-0.8164807 v 1.3229107 z"
       id="path27"
       aria-label="ƒ Ɠ Ɣ ƕ Ɩ Ɨ Ƙ ƙ ƚ ƛ Ɯ Ɲ" />
  </g>
</svg>
