<?xml version="1.0" encoding="UTF-8" standalone="no"?>
<!-- Created with Inkscape (http://www.inkscape.org/) -->

<svg
   width="48"
   height="48"
   viewBox="0 0 12.7 12.7"
   version="1.1"
   id="svg1"
   xmlns="http://www.w3.org/2000/svg"
   xmlns:svg="http://www.w3.org/2000/svg">
  <defs
     id="defs1" />
  <g
     id="layer1"
     transform="matrix(1.0909091,0,0,1.0909091,-0.5772727,-0.57727309)"
     style="display:inline;fill:none;stroke:none">
    <rect
       style="fill:none;stroke:none;stroke-width:1.45521;stroke-miterlimit:0"
       id="rect34"
       width="11.641666"
       height="11.641666"
       x="0.52916664"
       y="0.529167" />
  </g>
  <g
     id="layer7">
    <path
       style="font-size:10.5833px;font-family:'open sans light astro';-inkscape-font-specification:'open sans light astro Light';fill:#ffffff;stroke:#000000;stroke-width:0.185208;stroke-linecap:round;stroke-linejoin:round;stroke-miterlimit:0;stroke-dasharray:none;stroke-opacity:1"
       d="m 7.1781381,3.8884775 c 0,-0.4134067 -0.05857,-0.6959067 -0.175699,-0.8474867 -0.0689,-0.0827 -0.144694,-0.14814 -0.227376,-0.19637 -0.08268,-0.0413 -0.172254,-0.062 -0.268716,-0.062 -0.103353,0 -0.19637,0.007 -0.279052,0.0207 -0.08268,0.0138 -0.165364,0.0414 -0.248046,0.0827 -0.186035,0.0965 -0.334173,0.22737 -0.444416,0.39274 0.02067,0.15158 0.03101,0.3548397 0.03101,0.6097767 V 9.169854 H 4.6666761 V 3.6714975 c 0,-0.0758 -0.0034,-0.1515867 -0.01034,-0.2273767 -0.01378,-0.0827 -0.03101,-0.15158 -0.05168,-0.2067 -0.02756,-0.062 -0.06546,-0.12746 -0.113688,-0.19637 -0.137803,-0.17915 -0.327283,-0.26872 -0.568439,-0.26872 -0.275607,0 -0.502982,0.0965 -0.682126,0.28939 -0.03445,0.0483 -0.08957,0.11717 -0.165364,0.2067 V 9.169854 H 2.186207 V 1.5734408 c 0.0689,-0.0827 0.213595,-0.2446 0.4340801,-0.48576 h 0.454752 v 1.56063 c 0.02067,-0.0345 0.06201,-0.0999 0.124023,-0.19637 0.137803,-0.17915 0.292832,-0.31351 0.465086,-0.40308 0.179145,-0.0896 0.361734,-0.13435 0.547769,-0.13435 0.310057,0 0.592554,0.11713 0.84749,0.35139 0.137803,0.12403 0.244601,0.26528 0.320393,0.42375 0.04823,-0.10335 0.124025,-0.20326 0.227376,-0.29972 0.137803,-0.15159 0.282497,-0.26183 0.43408,-0.33073 0.206705,-0.0965 0.437526,-0.14469 0.692462,-0.14469 0.296277,0 0.575329,0.11713 0.8371557,0.35139 0.186035,0.17915 0.320393,0.40652 0.403075,0.68213 0.06201,0.21359 0.09302,0.50987 0.09302,0.8888367 0.709687,0.0965 1.264346,0.42374 1.663976,0.98184 0.3513992,0.48231 0.5270982,1.06453 0.5270982,1.74666 0,0.52365 -0.127468,1.06798 -0.3824052,1.63297 -0.227375,0.48921 -0.516762,0.9439565 -0.868161,1.3642562 -0.117133,0.11713 -0.285942,0.29628 -0.506427,0.5374303 0.275607,0.26872 0.582219,0.40308 0.919837,0.40308 0.158474,0 0.306613,-0.0345 0.444416,-0.10336 0.1515842,-0.062 0.2790522,-0.13435 0.3824052,-0.21704 v 0.93018 c -0.213595,0.1378 -0.4892022,0.2067 -0.8268212,0.2067 -0.310057,0 -0.602889,-0.0586 -0.878496,-0.1757 -0.268717,-0.11713 -0.506428,-0.27905 -0.713133,-0.48575 -0.213595,0.12402 -1.0231897,0.50987 -2.4287837,1.15754 -0.04134,-0.14469 -0.08613,-0.27561 -0.134359,-0.39274 -0.04134,-0.12402 -0.07235,-0.2446 -0.09302,-0.36173 l 0.692462,-0.32039 c 0.468531,-0.20671 0.964624,-0.4582 1.488277,-0.7544802 -0.117133,-0.2824901 -0.1757,-0.5546501 -0.1757,-0.8164798 V 3.8885375 Z m 0.8888317,0.85783 V 9.169794 c -0.0069,0.062 3e-6,0.13779 0.02067,0.2273797 0.213595,-0.1998197 0.416855,-0.4409797 0.60978,-0.7234762 0.192925,-0.27561 0.358289,-0.59255 0.496092,-0.95084 0.0689,-0.18603 0.120578,-0.36518 0.155029,-0.53743 0.03445,-0.17225 0.05168,-0.3514 0.05168,-0.53743 0,-0.57878 -0.165364,-1.04731 -0.496092,-1.4056 -0.227376,-0.24805 -0.506428,-0.41341 -0.837156,-0.49609 z"
       id="path28"
       aria-label="ƒ Ɠ Ɣ ƕ Ɩ Ɨ Ƙ ƙ ƚ ƛ Ɯ Ɲ" />
  </g>
</svg>
