<?xml version="1.0" encoding="UTF-8" standalone="no"?>
<!-- Created with Inkscape (http://www.inkscape.org/) -->

<svg
   width="48"
   height="48"
   viewBox="0 0 12.7 12.7"
   version="1.1"
   id="svg1"
   xmlns="http://www.w3.org/2000/svg"
   xmlns:svg="http://www.w3.org/2000/svg">
  <defs
     id="defs1" />
  <g
     id="layer1"
     transform="matrix(1.0909091,0,0,1.0909091,-0.5772727,-0.57727309)"
     style="display:inline;fill:none;stroke:none">
    <rect
       style="fill:none;stroke:none;stroke-width:1.45521;stroke-miterlimit:0"
       id="rect34"
       width="11.641666"
       height="11.641666"
       x="0.52916664"
       y="0.529167" />
  </g>
  <g
     id="layer7">
    <path
       style="font-size:10.5833px;font-family:'open sans light astro';-inkscape-font-specification:'open sans light astro Light';fill:#ffffff;stroke:#000000;stroke-width:0.185208;stroke-linecap:round;stroke-linejoin:round;stroke-miterlimit:0;stroke-dasharray:none;stroke-opacity:1"
       d="m 8.7374425,6.1413275 h 1.6433055 v 0.84749 H 7.8796171 v -0.80615 c 0,-0.22737 -0.0379,-0.43408 -0.113687,-0.62012 -0.07579,-0.18603 -0.18259,-0.3514 -0.3203927,-0.49609 -0.275607,-0.3169467 -0.640786,-0.4754167 -1.095537,-0.4754167 -0.44097,0 -0.806149,0.15847 -1.095536,0.4754167 -0.137804,0.14469 -0.244601,0.3135 -0.320393,0.50643 -0.0689,0.18603 -0.103353,0.38929 -0.103353,0.60978 v 0.80615 h -2.511466 v -0.84749 h 1.65364 c 0,-0.33762 0.05512,-0.64423 0.165364,-0.91984 0.110243,-0.2825 0.282497,-0.5443267 0.516763,-0.7854767 0.468532,-0.46853 1.033525,-0.7028 1.694981,-0.7028 0.613225,0 1.150658,0.20671 1.6122987,0.62012 0.2549367,0.24115 0.4478607,0.5098667 0.5787747,0.8061467 0.1309127,0.30317 0.1963687,0.63045 0.1963687,0.98185 z m -6.4181901,1.94303 h 8.0614956 v 0.84749 H 2.3192524 Z"
       id="path29"
       aria-label="ƒ Ɠ Ɣ ƕ Ɩ Ɨ Ƙ ƙ ƚ ƛ Ɯ Ɲ" />
  </g>
</svg>
