<?xml version="1.0" encoding="UTF-8" standalone="no"?>
<!-- Created with Inkscape (http://www.inkscape.org/) -->

<svg
   width="48"
   height="48"
   viewBox="0 0 12.7 12.7"
   version="1.1"
   id="svg1"
   xmlns="http://www.w3.org/2000/svg"
   xmlns:svg="http://www.w3.org/2000/svg">
  <defs
     id="defs1" />
  <g
     id="layer1"
     transform="matrix(1.0909091,0,0,1.0909091,-0.5772727,-0.57727309)"
     style="display:inline;fill:none;stroke:none">
    <rect
       style="fill:none;stroke:none;stroke-width:1.45521;stroke-miterlimit:0"
       id="rect34"
       width="11.641666"
       height="11.641666"
       x="0.52916664"
       y="0.529167" />
  </g>
  <g
     id="layer7">
    <path
       style="font-size:10.5833px;font-family:'open sans light astro';-inkscape-font-specification:'open sans light astro Light';fill:#ffffff;stroke:#000000;stroke-width:0.185208;stroke-linecap:round;stroke-linejoin:round;stroke-miterlimit:0;stroke-dasharray:none;stroke-opacity:1"
       d="m 9.7141263,10.091217 c -0.124023,0.316949 -0.3341736,0.623559 -0.6304503,0.919829 -0.199815,0.18604 -0.4030747,0.32729 -0.6097797,0.42375 -0.206705,0.10335 -0.4271897,0.15503 -0.6614557,0.15503 -0.241156,0 -0.458196,-0.0413 -0.651121,-0.12403 -0.192925,-0.0827 -0.361734,-0.21015 -0.506427,-0.3824 -0.124023,-0.15159 -0.217041,-0.31695 -0.279052,-0.49609 -0.05512,-0.17225 -0.08268,-0.36173 -0.08268,-0.568439 0,-0.2342701 0.0379,-0.4581998 0.113688,-0.6717898 0.03445,-0.10335 0.07579,-0.217037 0.124023,-0.3410665 0.05512,-0.11713 0.110242,-0.23082 0.165364,-0.34106 0.110242,-0.22049 0.22393,-0.43064 0.341063,-0.63045 0.110243,-0.19293 0.223931,-0.39963 0.341063,-0.62012 0.289388,-0.59944 0.471977,-1.223 0.547769,-1.87068 0.0069,-0.12402 0.01033,-0.24115 0.01033,-0.3514 0,-0.35829 -0.05512,-0.68901 -0.165364,-0.99218 -0.06201,-0.14469 -0.120578,-0.272157 -0.175699,-0.3824067 -0.0689,-0.13091 -0.155029,-0.25494 -0.258382,-0.37207 -0.09646,-0.11713 -0.19637,-0.2067 -0.299722,-0.26871 -0.124023,-0.0827 -0.251491,-0.12403 -0.382404,-0.12403 -0.117133,0 -0.213596,0.007 -0.289388,0.0207 -0.08268,0.0138 -0.168809,0.0448 -0.258381,0.093 -0.165364,0.0827 -0.313502,0.2136 -0.444416,0.39274 0.02067,0.15159 0.03101,0.3513997 0.03101,0.5994467 V 9.4504372 H 4.7945466 V 4.1691307 c 0,-0.3996267 -0.05857,-0.6821267 -0.175699,-0.8474967 -0.124023,-0.18603 -0.313503,-0.27905 -0.568439,-0.27905 -0.172254,0 -0.327283,0.0482 -0.465086,0.14469 -0.110243,0.0689 -0.213596,0.15848 -0.310058,0.26872 -0.01378,0.0207 -0.0379,0.0482 -0.07235,0.0827 V 9.4504572 H 2.3140859 V 1.843714 c 0.0689,-0.0827 0.213595,-0.24116 0.434081,-0.47542 h 0.4547507 v 1.56062 c 0.02067,-0.0345 0.06201,-0.0999 0.124023,-0.19637 0.137803,-0.17915 0.292832,-0.31351 0.465086,-0.40308 0.172254,-0.0896 0.358289,-0.13435 0.558104,-0.13435 0.303168,0 0.585664,0.11713 0.847491,0.35139 0.130913,0.12403 0.234266,0.26528 0.310057,0.42375 0.04134,-0.0896 0.117134,-0.19293 0.227376,-0.31006 0.151584,-0.15158 0.299722,-0.26182 0.444416,-0.33073 0.199815,-0.0896 0.42719,-0.13435 0.682127,-0.13435 0.296277,0 0.575329,0.12058 0.837155,0.36173 0.268717,0.23427 0.489202,0.51676 0.6614557,0.84749 0.179145,0.33073 0.299723,0.7062367 0.3617337,1.1265467 0.02067,0.11713 0.03101,0.23426 0.03101,0.35139 0.0069,0.11713 0.01033,0.26183 0.01033,0.43409 v 0.25838 c 0,0.16536 -0.01723,0.32728 -0.05168,0.48575 -0.03445,0.15847 -0.08268,0.32384 -0.144694,0.4961 -0.103352,0.31695 -0.22393,0.60978 -0.361733,0.87849 -0.1378037,0.26183 -0.2893867,0.52365 -0.4547517,0.78548 -0.103352,0.17225 -0.258381,0.43753 -0.465086,0.79582 -0.192925,0.3307265 -0.289387,0.6476662 -0.289387,0.9508361 v 0.1446992 c 0.04823,0.46853 0.282497,0.7338 0.702797,0.79581 0.02067,0.007 0.05512,0.0103 0.103353,0.0103 0.303167,0 0.5994437,-0.15158 0.8888317,-0.45475 0.1653637,-0.18603 0.3169477,-0.416849 0.4547507,-0.6924591 -0.05512,-0.0207 -0.141247,-0.0482 -0.258382,-0.0827 -0.07579,-0.007 -0.141248,-0.0138 -0.1963687,-0.0207 -0.06201,-0.007 -0.130915,-0.0103 -0.206706,-0.0103 H 8.380874 8.298194 c -0.1860347,0.0207 -0.3720687,0.0689 -0.5581037,0.14469 0.5856647,-0.3927397 1.4676054,-0.9887362 2.6458237,-1.7879962 -0.0069,0.53743 -0.01033,1.6088462 -0.01033,3.2142553 -0.04134,-0.22737 -0.08957,-0.39618 -0.144694,-0.50642 -0.103352,-0.19982 -0.22393,-0.36863 -0.3617337,-0.50643 -0.03445,-0.0275 -0.08613,-0.0689 -0.155028,-0.124019 z"
       id="path30"
       aria-label="ƒ Ɠ Ɣ ƕ Ɩ Ɨ Ƙ ƙ ƚ ƛ Ɯ Ɲ" />
  </g>
</svg>
