<?xml version="1.0" encoding="UTF-8" standalone="no"?>
<!-- Created with Inkscape (http://www.inkscape.org/) -->

<svg
   width="48"
   height="48"
   viewBox="0 0 12.7 12.7"
   version="1.1"
   id="svg1"
   xmlns="http://www.w3.org/2000/svg"
   xmlns:svg="http://www.w3.org/2000/svg">
  <defs
     id="defs1" />
  <g
     id="layer1"
     transform="matrix(1.0909091,0,0,1.0909091,-0.5772727,-0.57727309)"
     style="display:inline;fill:none;stroke:none">
    <rect
       style="fill:none;stroke:none;stroke-width:1.45521;stroke-miterlimit:0"
       id="rect34"
       width="11.641666"
       height="11.641666"
       x="0.52916664"
       y="0.529167" />
  </g>
  <g
     id="layer7">
    <path
       style="font-size:10.5833px;font-family:'open sans light astro';-inkscape-font-specification:'open sans light astro Light';fill:#ffffff;stroke:#000000;stroke-width:0.185208;stroke-linecap:round;stroke-linejoin:round;stroke-miterlimit:0;stroke-dasharray:none;stroke-opacity:1"
       d="m 8.7115922,4.5910408 c -0.475417,0.4547467 -1.429704,1.3745867 -2.8628547,2.7595067 0.16537,0.15159 0.499537,0.4582 1.002514,0.91984 -0.0827,0.0965 -0.258377,0.28594 -0.527097,0.56844 l -0.992174,-0.86816 c -0.392737,0.39274 -1.188554,1.18511 -2.387425,2.3771065 -0.10336,-0.10335 -0.31351,-0.313496 -0.6304471,-0.6304465 0.3858371,-0.38585 1.1644241,-1.15066 2.3357451,-2.29443 -0.165357,-0.14469 -0.492637,-0.43753 -0.981844,-0.8785 0.0896,-0.0965 0.27561,-0.28938 0.558107,-0.57877 0.16536,0.15158 0.492637,0.44786 0.981844,0.88883 0.475417,-0.48231 1.433144,-1.45038 2.8731847,-2.9042067 -0.19293,-0.1378 -0.399627,-0.25493 -0.620117,-0.3514 -0.220477,-0.0896 -0.4616367,-0.15158 -0.7234667,-0.18603 0.8130367,-0.25494 2.0291507,-0.6339 3.6483305,-1.13688 -0.186039,0.60633 -0.5649958,1.82245 -1.1368728,3.6483467 -0.0276,-0.26872 -0.0965,-0.5271 -0.2067,-0.77515 -0.0758,-0.17914 -0.18604,-0.3651667 -0.330727,-0.5580967 z"
       id="path31"
       aria-label="ƒ Ɠ Ɣ ƕ Ɩ Ɨ Ƙ ƙ ƚ ƛ Ɯ Ɲ" />
  </g>
</svg>
