<?xml version="1.0" encoding="UTF-8" standalone="no"?>
<!-- Created with Inkscape (http://www.inkscape.org/) -->

<svg
   width="48"
   height="48"
   viewBox="0 0 12.7 12.7"
   version="1.1"
   id="svg1"
   xmlns="http://www.w3.org/2000/svg"
   xmlns:svg="http://www.w3.org/2000/svg">
  <defs
     id="defs1" />
  <g
     id="layer1"
     transform="matrix(1.0909091,0,0,1.0909091,-0.5772727,-0.57727309)"
     style="display:inline;fill:none;stroke:none">
    <rect
       style="fill:none;stroke:none;stroke-width:1.45521;stroke-miterlimit:0"
       id="rect34"
       width="11.641666"
       height="11.641666"
       x="0.52916664"
       y="0.529167" />
  </g>
  <g
     id="layer7">
    <path
       style="font-size:10.5833px;font-family:'open sans light astro';-inkscape-font-specification:'open sans light astro Light';fill:#ffffff;stroke:#000000;stroke-width:0.185208;stroke-linecap:round;stroke-linejoin:round;stroke-miterlimit:0;stroke-dasharray:none;stroke-opacity:1"
       d="m 6.6032152,5.6969075 c 0.32384,-0.4203 0.97496,-1.2608967 1.9533684,-2.5217967 H 4.0090682 v -0.88883 H 10.38593 c -0.4202999,0.53743 -1.2540197,1.6123 -2.5011451,3.2245967 h 0.062 c 0.6614587,0 1.2333354,0.23771 1.7156651,0.71313 0.47542,0.47542 0.71313,1.05075 0.71313,1.72599 0,0.66835 -0.23771,1.23678 -0.71313,1.70531 -0.4754297,0.4754295 -1.0473164,0.7131365 -1.7156651,0.7131365 -0.6614497,0 -1.2333397,-0.237707 -1.7156497,-0.7131365 -0.47542,-0.47542 -0.71313,-1.04386 -0.71313,-1.70531 0,-0.32384 0.062,-0.63734 0.18603,-0.94051 -0.647667,0.3514 -1.209217,0.88883 -1.684637,1.6123 -0.46853,0.73036 -0.75792,1.4917195 -0.86816,2.2840865 H 2.3140785 c 0.0413,-0.34451 0.1067997,-0.67179 0.1963697,-0.9818465 0.0896,-0.31695 0.2136,-0.64078 0.37207,-0.97151 0.27561,-0.58567 0.6339,-1.11966 1.07487,-1.60197 0.41341,-0.46164 0.87505,-0.83715 1.384917,-1.12654 0.37896,-0.22049 0.79926,-0.39619 1.2609,-0.5271 z m 0.0827,1.37459 c -0.19292,0.26183 -0.28938,0.55466 -0.28938,0.8785 0,0.40652 0.15158,0.76136 0.45475,1.06453 0.30316,0.29627 0.66834,0.44441 1.0955297,0.44441 0.4202997,0 0.7854787,-0.14814 1.0955354,-0.44441 0.3031697,-0.29628 0.4547597,-0.65112 0.4547597,-1.06453 0,-0.4203 -0.15504,-0.77859 -0.4650897,-1.07487 -0.3031667,-0.30317 -0.6649057,-0.45475 -1.0852054,-0.45475 -0.5098697,0 -0.9301697,0.21704 -1.2608997,0.65112 z"
       id="path32"
       aria-label="ƒ Ɠ Ɣ ƕ Ɩ Ɨ Ƙ ƙ ƚ ƛ Ɯ Ɲ" />
  </g>
</svg>
