<?xml version="1.0" encoding="UTF-8" standalone="no"?>
<!-- Created with Inkscape (http://www.inkscape.org/) -->

<svg
   width="48"
   height="48"
   viewBox="0 0 12.7 12.7"
   version="1.1"
   id="svg1"
   xmlns="http://www.w3.org/2000/svg"
   xmlns:svg="http://www.w3.org/2000/svg">
  <defs
     id="defs1" />
  <g
     id="layer1"
     transform="matrix(1.0909091,0,0,1.0909091,-0.5772727,-0.57727309)"
     style="display:inline;fill:none;stroke:none">
    <rect
       style="fill:none;stroke:none;stroke-width:1.45521;stroke-miterlimit:0"
       id="rect34"
       width="11.641666"
       height="11.641666"
       x="0.52916664"
       y="0.529167" />
  </g>
  <g
     id="layer7">
    <path
       style="font-size:10.5833px;font-family:'open sans light astro';-inkscape-font-specification:'open sans light astro Light';fill:#ffffff;stroke:#000000;stroke-width:0.185208;stroke-linecap:round;stroke-linejoin:round;stroke-miterlimit:0;stroke-dasharray:none;stroke-opacity:1"
       d="m 2.3192569,6.6374175 c 0.2067,0 0.38585,0.0792 0.53743,0.23771 0.15848,0.15159 0.29973,0.33762 0.42375,0.55811 0.14469,0.28249 0.27561,0.57188 0.39274,0.86816 0.10335,0.28249 0.19637,0.42374 0.27906,0.42374 0.0758,0 0.15847,-0.11369 0.24804,-0.34106 0.0689,-0.15847 0.12058,-0.2825 0.15503,-0.37207 l 0.18604,-0.37207 c 0.13091,-0.26183 0.27216,-0.4892 0.42374,-0.68213 0.17225,-0.21359 0.36862,-0.32039 0.58911,-0.32039 0.19981,0 0.37207,0.0827 0.51676,0.24805 0.15159,0.16536 0.28594,0.36517 0.403077,0.59944 0.14469,0.28939 0.26871,0.56844 0.37207,0.83716 0.103347,0.26871 0.203257,0.40307 0.299717,0.40307 0.0965,0 0.19292,-0.12747 0.2893867,-0.3824 0.0413,-0.11713 0.0896,-0.2446 0.14469,-0.38241 0.062,-0.14469 0.12747,-0.28594 0.19637,-0.42374 0.1171297,-0.24116 0.2514867,-0.45131 0.4030667,-0.63045 0.15159,-0.17915 0.3341797,-0.26872 0.5477697,-0.26872 0.2204897,0 0.4099697,0.0965 0.5684397,0.28939 0.1447,0.17914 0.2756097,0.39273 0.3927397,0.64078 0.0758,0.17225 0.18948,0.43064 0.3410596,0.77515 0.11025,0.24115 0.22738,0.36173 0.3514,0.36173 v 0.91984 c -0.21359,0 -0.3996296,-0.0896 -0.5580996,-0.26872 -0.15158,-0.17914 -0.28939,-0.38929 -0.4134097,-0.63045 -0.0758,-0.14469 -0.1447,-0.2825 -0.20671,-0.41341 -0.062,-0.13091 -0.11713,-0.25838 -0.16536,-0.3824 -0.1102397,-0.26183 -0.2066997,-0.39274 -0.2893897,-0.39274 -0.0758,0 -0.16536,0.11369 -0.26871,0.34106 -0.0758,0.16537 -0.1894797,0.41341 -0.3410697,0.74414 -0.12402,0.25493 -0.265267,0.48575 -0.4237367,0.69246 -0.15848,0.19981 -0.341067,0.29972 -0.5477667,0.29972 -0.19293,0 -0.372067,-0.093 -0.537427,-0.27905 -0.15848,-0.18603 -0.303167,-0.40652 -0.434077,-0.66145 -0.062,-0.12403 -0.12747,-0.2515 -0.19637,-0.38241 -0.062,-0.13091 -0.12058,-0.26183 -0.1757,-0.39274 -0.10336,-0.24115 -0.19293,-0.36173 -0.26872,-0.36173 -0.0689,0 -0.15847,0.12747 -0.26872,0.3824 -0.11024,0.25494 -0.23771,0.52366 -0.3824,0.80615 -0.12402,0.24116 -0.26527,0.45131 -0.42375,0.63045 -0.15847,0.17225 -0.33761,0.25838 -0.53743,0.25838 -0.2136,0 -0.39619,-0.093 -0.54777,-0.27905 -0.1447,-0.19293 -0.27217,-0.41341 -0.38241,-0.66145 -0.0827,-0.16537 -0.20326,-0.4203 -0.36173,-0.76481 -0.10336,-0.24116 -0.2136,-0.36174 -0.33073,-0.36174 z m 0,-3.5966667 c 0.2067,0 0.38585,0.0792 0.53743,0.23771 0.15848,0.15847 0.29973,0.34451 0.42375,0.5581 0.15158,0.2825 0.27905,0.56844 0.3824,0.85783 0.11025,0.2824967 0.20671,0.4237467 0.2894,0.4237467 0.0758,0 0.15847,-0.11024 0.24804,-0.3307267 l 0.15503,-0.37207 c 0.0413,-0.0827 0.10335,-0.20671 0.18604,-0.37207 0.13091,-0.26183 0.27216,-0.49265 0.42374,-0.69246 0.17225,-0.20671 0.36862,-0.31006 0.58911,-0.31006 0.19981,0 0.37207,0.0792 0.51676,0.23771 0.14469,0.16537 0.27905,0.36518 0.403077,0.59944 0.14469,0.29628 0.26871,0.57533 0.37207,0.83716 0.103347,0.2687167 0.203257,0.4030767 0.299717,0.4030767 0.0965,0 0.19292,-0.13091 0.2893867,-0.3927367 0.0965,-0.25494 0.21015,-0.52021 0.34106,-0.79582 0.1171297,-0.23427 0.2514867,-0.44097 0.4030667,-0.62011 0.15159,-0.17915 0.3341797,-0.26872 0.5477697,-0.26872 0.2273797,0 0.4134097,0.093 0.5581097,0.27905 0.15158,0.18603 0.2859397,0.40307 0.4030697,0.65112 0.0758,0.17225 0.18948,0.42719 0.3410596,0.76481 0.11025,0.2480467 0.22738,0.3720667 0.3514,0.3720667 v 0.91984 c -0.21359,0 -0.3996296,-0.0896 -0.5580996,-0.26872 -0.15158,-0.17914 -0.28939,-0.39273 -0.4134097,-0.64078 -0.0758,-0.14469 -0.1447,-0.282497 -0.20671,-0.4134067 -0.062,-0.13091 -0.11713,-0.25838 -0.16536,-0.38241 -0.10335,-0.25493 -0.1998097,-0.3824 -0.2893897,-0.3824 -0.0758,0 -0.16536,0.11369 -0.26871,0.34106 -0.0758,0.16537 -0.1894797,0.41341 -0.3410697,0.7441367 -0.12402,0.24805 -0.265267,0.47542 -0.4237367,0.68213 -0.15848,0.20671 -0.341067,0.31006 -0.5477667,0.31006 -0.19293,0 -0.372067,-0.093 -0.537427,-0.27906 -0.15848,-0.18603 -0.303167,-0.40652 -0.434077,-0.66145 -0.062,-0.12403 -0.12747,-0.251497 -0.19637,-0.3824067 -0.062,-0.13091 -0.12058,-0.26183 -0.1757,-0.39274 -0.10336,-0.24115 -0.19293,-0.36173 -0.26872,-0.36173 -0.0689,0 -0.15847,0.12747 -0.26872,0.3824 -0.11024,0.25494 -0.23771,0.5202097 -0.3824,0.7958167 -0.12402,0.24115 -0.26527,0.4513 -0.42375,0.63045 -0.15847,0.17915 -0.33761,0.26872 -0.53743,0.26872 -0.2136,0 -0.39619,-0.0965 -0.54777,-0.28939 -0.1447,-0.18603 -0.27217,-0.40307 -0.38241,-0.65112 -0.0827,-0.17226 -0.20326,-0.4271967 -0.36173,-0.7648067 -0.10336,-0.24805 -0.2136,-0.37207 -0.33073,-0.37207 z"
       id="path33"
       aria-label="ƒ Ɠ Ɣ ƕ Ɩ Ɨ Ƙ ƙ ƚ ƛ Ɯ Ɲ" />
  </g>
</svg>
