<?xml version="1.0" encoding="UTF-8" standalone="no"?>
<!-- Created with Inkscape (http://www.inkscape.org/) -->

<svg
   width="48"
   height="48"
   viewBox="0 0 12.7 12.7"
   version="1.1"
   id="svg1"
   xmlns="http://www.w3.org/2000/svg"
   xmlns:svg="http://www.w3.org/2000/svg">
  <defs
     id="defs1" />
  <g
     id="layer1"
     transform="matrix(1.0909091,0,0,1.0909091,-0.5772727,-0.57727309)"
     style="display:inline;fill:none;stroke:none">
    <rect
       style="fill:none;stroke:none;stroke-width:1.45521;stroke-miterlimit:0"
       id="rect34"
       width="11.641666"
       height="11.641666"
       x="0.52916664"
       y="0.529167" />
  </g>
  <g
     id="layer7">
    <path
       style="font-size:10.5833px;font-family:'open sans light astro';-inkscape-font-specification:'open sans light astro Light';fill:#ffffff;stroke:#000000;stroke-width:0.185208;stroke-linecap:round;stroke-linejoin:round;stroke-miterlimit:0;stroke-dasharray:none;stroke-opacity:1"
       d="M 9.9001589,10.368444 H 9.4660792 9.2386992 8.5565795 C 8.1156078,9.8172375 7.7745381,9.2246775 7.5333881,8.5907775 c -0.12403,-0.31695 -0.22049,-0.60978 -0.28939,-0.87849 -0.0758,-0.33073 -0.11369,-0.64424 -0.11369,-0.94051 h -1.550287 c 0,0.34451 -0.0482,0.69246 -0.14469,1.04386 -0.0689,0.28249 -0.18603,0.61667 -0.3514,1.00252 -0.24115,0.5581 -0.55466,1.07486 -0.94051,1.5502865 h -1.34358 c 0.53054,-0.4892065 0.96118,-1.0645365 1.29191,-1.7259865 0.28938,-0.59255 0.46164,-1.21611 0.51676,-1.87068 h -1.30224 v -0.88883 h 1.30224 c -0.062,-0.66146 -0.23427,-1.2884667 -0.51676,-1.8810167 -0.31695,-0.64768 -0.74759,-1.21956 -1.29191,-1.71565 h 1.32291 c 0.38585,0.47542 0.7028,0.99218 0.95084,1.55028 0.26872,0.6339 0.43409,1.3160267 0.4961,2.0463867 h 1.560617 c 0,-0.31006 0.0413,-0.63734 0.12402,-0.98185 0.0689,-0.2756067 0.17915,-0.5960067 0.33073,-0.9611767 0.24805,-0.60634 0.5787797,-1.15755 0.9921914,-1.65364 h 1.3229094 c -0.5718797,0.50987 -1.0197494,1.11965 -1.3435794,1.82934 -0.2549417,0.57877 -0.4099717,1.1678767 -0.4650917,1.7673267 h 1.3022414 v 0.88883 H 8.0914878 c 0,0.31006 0.0482,0.63045 0.14469,0.96118 0.0827,0.26183 0.2101497,0.56499 0.3824117,0.9095 0.31006,0.64767 0.7372497,1.223 1.2815694,1.7259865 z"
       id="path34"
       aria-label="ƒ Ɠ Ɣ ƕ Ɩ Ɨ Ƙ ƙ ƚ ƛ Ɯ Ɲ" />
  </g>
</svg>
