<?xml version="1.0" encoding="UTF-8" standalone="no"?>
<!-- Created with Inkscape (http://www.inkscape.org/) -->

<svg
   width="48.011875"
   height="48.022976"
   viewBox="0 0 12.703142 12.706079"
   version="1.1"
   id="svg1"
   xmlns="http://www.w3.org/2000/svg"
   xmlns:svg="http://www.w3.org/2000/svg">
  <defs
     id="defs1" />
  <g
     id="layer1"
     transform="matrix(1.0909091,0,0,1.0909091,-0.5772727,-0.57727309)"
     style="fill:none;stroke:none">
    <rect
       style="fill:none;stroke:none;stroke-width:0.264583"
       id="rect4"
       width="11.641666"
       height="11.641666"
       x="0.52916664"
       y="0.529167" />
  </g>
  <g
     id="layer8">
    <circle
       style="fill:none;stroke:#1e90ff;stroke-width:2.11667;stroke-miterlimit:0;stroke-dasharray:none;stroke-dashoffset:0;stroke-opacity:1;paint-order:normal"
       id="path18"
       cx="-0.0020770964"
       cy="8.9869394"
       r="5.2916665"
       transform="rotate(-45)" />
    <path
       d="m 6.9050693,9.2604167 h -0.70111 V 5.1923554 q 0,-0.3505544 0.0082,-0.5625174 0.0082,-0.2119631 0.02445,-0.4402313 -0.130443,0.1304389 -0.236425,0.2201156 -0.10598,0.089677 -0.269029,0.2282677 L 5.1115723,5.1434407 4.7365603,4.6624476 6.3099783,3.4395834 h 0.595128 z"
       id="path19"
       style="fill:#f9f9f9;stroke-width:0.79375;stroke-linecap:round;stroke-linejoin:round"
       aria-label="1" />
    <path
       style="fill:none;stroke:#00ff00;stroke-width:2.11667;stroke-miterlimit:0;stroke-dasharray:none;stroke-dashoffset:0;stroke-opacity:1;paint-order:normal"
       id="circle5"
       transform="rotate(-45)"
       d="m 4.8888333,11.007021 a 5.2916665,5.2916665 0 0 1 -2.8629094,2.86755" />
    <path
       style="fill:none;stroke:#00ff00;stroke-width:2.11667;stroke-miterlimit:0;stroke-dasharray:none;stroke-dashoffset:0;stroke-opacity:1;paint-order:normal"
       id="path21"
       d="M 13.87785,2.0221587 A 5.2916665,5.2916665 0 0 1 11.01494,4.8897091"
       transform="rotate(45)" />
    <path
       style="fill:none;stroke:#00ff00;stroke-width:2.11667;stroke-miterlimit:0;stroke-dasharray:none;stroke-dashoffset:0;stroke-opacity:1;paint-order:normal"
       id="path22"
       d="M 4.8929875,-6.9668578 A 5.2916665,5.2916665 0 0 1 2.030078,-4.0993074"
       transform="rotate(135)" />
    <path
       style="fill:none;stroke:#00ff00;stroke-width:2.11667;stroke-miterlimit:0;stroke-dasharray:none;stroke-dashoffset:0;stroke-opacity:1;paint-order:normal"
       id="path23"
       d="M -4.096029,2.0180046 A 5.2916665,5.2916665 0 0 1 -6.9589385,4.885555"
       transform="rotate(-135)" />
  </g>
</svg>
