<?xml version="1.0" encoding="UTF-8" standalone="no"?>
<!-- Created with Inkscape (http://www.inkscape.org/) -->

<svg
   width="48"
   height="48"
   viewBox="0 0 12.7 12.7"
   version="1.1"
   id="svg1"
   xmlns="http://www.w3.org/2000/svg"
   xmlns:svg="http://www.w3.org/2000/svg">
  <defs
     id="defs1" />
  <g
     id="layer1"
     transform="matrix(1.0909091,0,0,1.0909091,-0.5772727,-0.57727309)"
     style="fill:none;stroke:none">
    <rect
       style="fill:none;stroke:none;stroke-width:0.264583"
       id="rect4"
       width="11.641666"
       height="11.641666"
       x="0.52916664"
       y="0.529167" />
  </g>
  <g
     id="layer8">
    <circle
       style="fill:none;stroke:#1e90ff;stroke-width:2.11667;stroke-miterlimit:0;stroke-dasharray:none;stroke-dashoffset:0;stroke-opacity:1;paint-order:normal"
       id="path18"
       cx="-0.0020770964"
       cy="8.9869394"
       r="5.2916665"
       transform="rotate(-45)" />
    <circle
       style="fill:none;stroke:#00ff00;stroke-width:2.11667;stroke-miterlimit:0;stroke-dasharray:4.23333;stroke-dashoffset:0;stroke-opacity:1;paint-order:normal"
       id="circle19"
       cx="6.3500013"
       cy="6.3500013"
       r="5.2916665" />
    <path
       d="M 8.2473986,9.2604167 H 4.4526015 V 8.67351 L 5.956048,7.1539829 Q 6.390199,6.7198324 6.6876726,6.3821597 6.985146,6.0444869 7.137903,5.7228939 7.2906599,5.3932611 7.2906599,5.0073494 q 0,-0.4743496 -0.2813943,-0.7155444 -0.2813935,-0.2492346 -0.7316241,-0.2492346 -0.4180717,0 -0.7396647,0.1447169 Q 5.224424,4.3320041 4.8947914,4.5892786 L 4.5169198,4.1149288 Q 4.8545926,3.8335349 5.2887423,3.640579 5.7309331,3.4395834 6.2776415,3.4395834 q 0.8039828,0 1.2702924,0.4100311 0.4663103,0.4019913 0.4663103,1.1175356 0,0.4502304 -0.1849161,0.8441819 Q 7.6444121,6.2052835 7.3147794,6.5911951 6.985146,6.969067 6.5429559,7.4032175 L 5.345021,8.5850719 v 0.032159 h 2.9023776 z"
       id="path20"
       style="font-size:10.5833px;fill:#f9f9f9;stroke-width:0.79375;stroke-linecap:round;stroke-linejoin:round"
       aria-label="2" />
  </g>
</svg>
