<?xml version="1.0" encoding="UTF-8" standalone="no"?>
<!-- Created with Inkscape (http://www.inkscape.org/) -->

<svg
   width="48"
   height="48"
   viewBox="0 0 12.7 12.7"
   version="1.1"
   id="svg1"
   xmlns="http://www.w3.org/2000/svg"
   xmlns:svg="http://www.w3.org/2000/svg">
  <defs
     id="defs1" />
  <g
     id="layer1"
     transform="matrix(1.0909091,0,0,1.0909091,-0.5772727,-0.57727309)"
     style="fill:none;stroke:none">
    <rect
       style="fill:none;stroke:none;stroke-width:0.264583"
       id="rect4"
       width="11.641666"
       height="11.641666"
       x="0.52916664"
       y="0.529167" />
  </g>
  <g
     id="layer8">
    <path
       d="M 8.8476588,10.181154 H 3.8523421 V 9.4085738 L 5.831418,7.4083301 Q 6.4029168,6.836832 6.7944988,6.3923334 q 0.391582,-0.4444987 0.592665,-0.8678306 0.201083,-0.4339153 0.201083,-0.9419137 0,-0.6244146 -0.370416,-0.9419136 -0.370415,-0.3280823 -0.9630801,-0.3280823 -0.5503327,0 -0.9736647,0.1904994 Q 4.868338,3.693592 4.434423,4.0322576 L 3.9370081,3.4078428 Q 4.381507,3.0374273 4.953004,2.7834281 5.535086,2.5188456 6.2547507,2.5188456 q 1.0583301,0 1.6721611,0.5397483 0.613832,0.529165 0.613832,1.4710786 0,0.5926648 -0.243416,1.1112465 -0.243416,0.5185818 -0.677331,1.0265802 -0.433916,0.4974151 -1.015997,1.0689132 L 5.027087,9.2921575 v 0.042333 h 3.8205718 z"
       id="text3"
       style="font-size:10.5833px;fill:#f9f9f9;stroke-width:0.79375;stroke-linecap:round;stroke-linejoin:round"
       aria-label="2" />
    <circle
       style="fill:none;stroke:#1e90ff;stroke-width:1.05833;stroke-miterlimit:0;stroke-dasharray:none;stroke-dashoffset:0;stroke-opacity:1"
       id="path18"
       cx="6.3499999"
       cy="6.3499999"
       r="5.5562515" />
    <circle
       style="fill:none;stroke:#00ff00;stroke-width:1.05833;stroke-miterlimit:0;stroke-dasharray:4.23332;stroke-dashoffset:0;stroke-opacity:1"
       id="circle18"
       cx="6.3499999"
       cy="6.3499999"
       r="5.5562515" />
  </g>
</svg>
