<?xml version="1.0" encoding="UTF-8" standalone="no"?>
<!-- Created with Inkscape (http://www.inkscape.org/) -->

<svg
   width="48"
   height="48"
   viewBox="0 0 12.7 12.7"
   version="1.1"
   id="svg1"
   inkscape:version="1.4 (e7c3feb, 2024-10-09)"
   sodipodi:docname="astrogt.svg"
   inkscape:export-filename="../tables.svg"
   inkscape:export-xdpi="96"
   inkscape:export-ydpi="96"
   xmlns:inkscape="http://www.inkscape.org/namespaces/inkscape"
   xmlns:sodipodi="http://sodipodi.sourceforge.net/DTD/sodipodi-0.dtd"
   xmlns="http://www.w3.org/2000/svg"
   xmlns:svg="http://www.w3.org/2000/svg">
  <sodipodi:namedview
     id="namedview1"
     pagecolor="#282828"
     bordercolor="#000000"
     borderopacity="0.25"
     inkscape:showpageshadow="false"
     inkscape:pageopacity="0.0"
     inkscape:pagecheckerboard="0"
     inkscape:deskcolor="#141414"
     inkscape:document-units="px"
     inkscape:zoom="2"
     inkscape:cx="1.25"
     inkscape:cy="-36.75"
     inkscape:window-width="1920"
     inkscape:window-height="1008"
     inkscape:window-x="0"
     inkscape:window-y="0"
     inkscape:window-maximized="1"
     inkscape:current-layer="layer8"
     showguides="true"
     showborder="false"
     inkscape:lockguides="false"
     showgrid="false"
     inkscape:export-bgcolor="#ffffff00">
    <sodipodi:guide
       position="0.52916667,12.7"
       orientation="-1,0"
       id="guide1"
       inkscape:locked="false"
       inkscape:label=""
       inkscape:color="rgb(0,134,229)" />
    <sodipodi:guide
       position="12.170833,12.7"
       orientation="-1,0"
       id="guide2"
       inkscape:locked="false"
       inkscape:label=""
       inkscape:color="rgb(0,134,229)" />
    <sodipodi:guide
       position="0,12.170833"
       orientation="0,1"
       id="guide3"
       inkscape:locked="false"
       inkscape:label=""
       inkscape:color="rgb(0,134,229)" />
    <sodipodi:guide
       position="0,0.52916667"
       orientation="0,1"
       id="guide4"
       inkscape:locked="false"
       inkscape:label=""
       inkscape:color="rgb(0,134,229)" />
    <sodipodi:guide
       position="0,6.35"
       orientation="0,1"
       id="guide5"
       inkscape:locked="false"
       inkscape:label=""
       inkscape:color="rgb(0,134,229)" />
  </sodipodi:namedview>
  <defs
     id="defs1" />
  <g
     inkscape:label="48x48bgnd"
     inkscape:groupmode="layer"
     id="layer1"
     inkscape:highlight-color="#000000"
     transform="matrix(1.0909091,0,0,1.0909091,-0.57727262,-0.57727301)"
     style="display:inline;fill:none;stroke:none">
    <rect
       style="fill:none;stroke:none;stroke-width:1.45521;stroke-miterlimit:0"
       id="rect34"
       width="11.641666"
       height="11.641666"
       x="0.52916664"
       y="0.529167"
       inkscape:export-filename="/home/mua/dev/venastrogt/astrogt/ui/hicolor/scalable/glyph signs/12fis.svg"
       inkscape:export-xdpi="96"
       inkscape:export-ydpi="96" />
  </g>
  <g
     inkscape:groupmode="layer"
     id="layer2"
     inkscape:label="editor"
     inkscape:highlight-color="#ffef43"
     transform="translate(0,15.875)"
     style="display:inline"
     sodipodi:insensitive="true">
    <g
       id="g2"
       transform="matrix(1.2101785,0,0,1.1931583,27.388347,-20.482671)"
       style="stroke-width:0.832198"
       sodipodi:insensitive="true">
      <path
         style="fill:none;stroke:#ffffff;stroke-width:0.660557;stroke-linecap:round;stroke-dasharray:none"
         d="M 4.6161077,9.8177844 H 8.0838921"
         id="path3"
         sodipodi:nodetypes="cc"
         transform="translate(0,-29.104169)" />
      <path
         style="fill:none;stroke:#ffffff;stroke-width:0.660557;stroke-linecap:round;stroke-dasharray:none"
         d="m 4.6161079,2.8822157 3.4677844,10e-8"
         id="path2"
         sodipodi:nodetypes="cc"
         transform="translate(0,-29.104169)" />
      <path
         style="fill:none;stroke:#ffffff;stroke-width:0.660557;stroke-linecap:butt;stroke-dasharray:none"
         d="m 6.3499999,9.8177844 2e-7,-6.9355687"
         id="path1"
         transform="translate(0,-29.104169)" />
    </g>
  </g>
  <g
     inkscape:groupmode="layer"
     id="layer6"
     inkscape:label="editor2"
     sodipodi:insensitive="true">
    <g
       id="g17"
       transform="translate(18.737586,-21.458037)"
       style="display:inline">
      <rect
         style="fill:none;stroke:#ffffff;stroke-width:0.793755;stroke-linecap:round"
         id="rect1"
         width="1.4543147"
         height="7.1534247"
         x="-2.341265"
         y="-15.871853"
         ry="0.57591134"
         transform="matrix(0.74828862,0.6633733,-0.66080568,0.75055703,0,0)" />
      <path
         style="fill:none;stroke:#ffffff;stroke-width:0.793753;stroke-linecap:round;stroke-linejoin:round"
         d="M 5.271736,-7.3299661 3.1012103,-5.965041 4.1834887,-8.2947197"
         id="path17" />
    </g>
  </g>
  <g
     inkscape:groupmode="layer"
     id="layer4"
     inkscape:label="data"
     sodipodi:insensitive="true">
    <g
       id="g9">
      <path
         style="fill:none;stroke:#ffffff;stroke-width:1.32292;stroke-linecap:round;stroke-linejoin:miter;stroke-dasharray:none"
         d="M 20.979454,-12.793234 V -23.376566"
         id="path12"
         sodipodi:nodetypes="cc" />
      <path
         style="fill:none;stroke:#ffffff;stroke-width:1.32292;stroke-linecap:round;stroke-linejoin:miter;stroke-dasharray:none"
         d="m 24.419036,-12.793233 v -7.833411"
         id="path13"
         sodipodi:nodetypes="cc" />
      <path
         style="fill:none;stroke:#ffffff;stroke-width:1.32292;stroke-linecap:round;stroke-linejoin:miter;stroke-dasharray:none"
         d="M 27.858618,-12.793233 V -17.98081"
         id="path14"
         sodipodi:nodetypes="cc" />
      <path
         style="fill:none;stroke:#ffffff;stroke-width:1.32292;stroke-linecap:round;stroke-linejoin:miter;stroke-dasharray:none"
         d="m 31.2982,-12.793234 v -3.600077"
         id="path15"
         sodipodi:nodetypes="cc" />
    </g>
  </g>
  <g
     inkscape:groupmode="layer"
     id="layer5"
     inkscape:label="astro"
     inkscape:export-filename="../../hicolor/scalable/stack/astro.svg"
     inkscape:export-xdpi="96"
     inkscape:export-ydpi="96"
     transform="translate(0,-58.208336)"
     sodipodi:insensitive="true">
    <g
       id="g3"
       transform="translate(18.738203,-10.464191)">
      <circle
         style="fill:none;stroke:#ffffff;stroke-width:0.48507;stroke-linecap:round;stroke-linejoin:miter;stroke-dasharray:none"
         id="path16"
         cx="6.3499999"
         cy="6.3500004"
         r="5.3357635"
         transform="matrix(1.0909091,0,0,1.0909091,-0.57727263,-0.57727302)" />
      <circle
         style="fill:none;stroke:#ffffff;stroke-width:0.529167;stroke-linecap:round;stroke-linejoin:miter;stroke-dasharray:none"
         id="circle1"
         cx="6.3499999"
         cy="6.3500004"
         r="3.8646605" />
      <circle
         style="fill:none;stroke:#ffffff;stroke-width:0.529169;stroke-linecap:round;stroke-linejoin:miter;stroke-dasharray:none"
         id="circle2"
         cx="6.3499999"
         cy="6.3500004"
         r="2.0148354" />
      <circle
         style="fill:#ffffff;stroke:none;stroke-width:0.529169;stroke-linecap:round;stroke-linejoin:miter;stroke-dasharray:none"
         id="circle2-3"
         cx="2.2207558"
         cy="2.2207563"
         r="0.96086526" />
      <circle
         style="fill:#ffffff;stroke:none;stroke-width:0.529169;stroke-linecap:round;stroke-linejoin:miter;stroke-dasharray:none"
         id="circle2-3-3"
         cx="9.4552212"
         cy="4.049305"
         r="0.7887885" />
      <circle
         style="fill:#ffffff;stroke:none;stroke-width:0.529169;stroke-linecap:round;stroke-linejoin:miter;stroke-dasharray:none"
         id="circle2-3-1"
         cx="5.2339239"
         cy="8.0274792"
         r="0.6812405" />
    </g>
  </g>
  <g
     inkscape:groupmode="layer"
     id="layer3"
     inkscape:label="tables"
     inkscape:highlight-color="#c76228"
     sodipodi:insensitive="true">
    <g
       id="g1"
       transform="matrix(1.1022844,0,0,1.3128669,19.119342,-52.687955)"
       style="stroke-width:0.831271">
      <path
         style="fill:none;stroke:#ffffff;stroke-width:0.659822;stroke-linecap:butt;stroke-dasharray:none"
         d="m 1.4198267,-5.410809 3e-7,-8.243434"
         id="path5"
         transform="translate(0,15.875)" />
      <path
         style="fill:none;stroke:#ffffff;stroke-width:0.659822;stroke-linecap:round;stroke-dasharray:none"
         d="M 1.4198269,-13.654243 H 11.280172"
         id="path5-2"
         sodipodi:nodetypes="cc"
         transform="translate(0,15.875)" />
      <path
         style="fill:none;stroke:#ffffff;stroke-width:0.659822;stroke-linecap:round;stroke-dasharray:none"
         d="M 1.4231665,-5.4108086 H 11.27359"
         id="path6"
         sodipodi:nodetypes="cc"
         transform="translate(0,15.875)" />
      <path
         style="fill:none;stroke:#ffffff;stroke-width:0.659822;stroke-linecap:round;stroke-dasharray:none"
         d="M 1.4198269,-11.537575 H 11.280172"
         id="path4"
         sodipodi:nodetypes="cc"
         transform="translate(0,15.875)" />
      <path
         style="fill:none;stroke:#ffffff;stroke-width:0.659822;stroke-linecap:butt;stroke-dasharray:none"
         d="m 11.280172,-5.410809 v -8.243434"
         id="path7"
         transform="translate(0,15.875)" />
      <path
         style="fill:none;stroke:#ffffff;stroke-width:0.659822;stroke-linecap:round;stroke-dasharray:none"
         d="M 1.4198269,-9.4209076 H 11.280172"
         id="path8"
         sodipodi:nodetypes="cc"
         transform="translate(0,15.875)" />
      <path
         style="fill:none;stroke:#ffffff;stroke-width:0.659822;stroke-linecap:round;stroke-dasharray:none"
         d="M 1.4198269,-7.3042408 H 11.280172"
         id="path9"
         sodipodi:nodetypes="cc"
         transform="translate(0,15.875)" />
      <path
         style="fill:none;stroke:#ffffff;stroke-width:0.659822;stroke-linecap:butt;stroke-dasharray:none"
         d="m 7.9933903,-5.410809 v -6.126766"
         id="path10"
         transform="translate(0,15.875)" />
      <path
         style="fill:none;stroke:#ffffff;stroke-width:0.659822;stroke-linecap:butt;stroke-dasharray:none"
         d="m 4.7066087,-5.410809 v -6.126766"
         id="path11"
         transform="translate(0,15.875)" />
    </g>
  </g>
  <g
     inkscape:groupmode="layer"
     id="layer9"
     inkscape:label="stack"
     sodipodi:insensitive="true">
    <text
       xml:space="preserve"
       style="font-size:7.05556px;text-align:start;writing-mode:lr-tb;direction:ltr;text-anchor:start;fill:#000000;stroke-width:0.79375"
       x="19.960905"
       y="-73.355118"
       id="text1"><tspan
         sodipodi:role="line"
         id="tspan1"
         style="fill:#ffffff;stroke:none;stroke-width:0.79375"
         x="19.960905"
         y="-73.355118">stack</tspan></text>
  </g>
  <g
     inkscape:groupmode="layer"
     id="layer8"
     inkscape:label="event1a2"
     inkscape:highlight-color="#4de33e">
    <path
       d="M 8.675168,-16.541763 H 4.0248331 v -0.719225 l 1.8423989,-1.862105 q 0.5320304,-0.532029 0.8965693,-0.945831 0.364539,-0.413801 0.551735,-0.807898 0.187196,-0.403949 0.187196,-0.876863 0,-0.581292 -0.3448347,-0.876865 -0.3448338,-0.305424 -0.8965688,-0.305424 -0.5123258,0 -0.9064228,0.177343 -0.384243,0.177344 -0.788191,0.492621 l -0.4630629,-0.581293 q 0.4138009,-0.344834 0.9458299,-0.581292 0.541883,-0.24631 1.2118468,-0.24631 0.9852407,0 1.5566799,0.502473 0.5714402,0.49262 0.5714402,1.369484 0,0.551735 -0.2266055,1.034502 -0.2266054,0.482769 -0.6305538,0.955685 -0.4039493,0.463063 -0.9458312,0.995093 l -1.4680094,1.448304 v 0.03941 h 3.556719 z"
       id="text3"
       style="font-size:10.5833px;fill:#f9f9f9;stroke-width:0.79375;stroke-linecap:round;stroke-linejoin:round"
       aria-label="2"
       inkscape:label="2text" />
    <path
       d="m 7.1014143,-26.91343 h -0.910164 v -5.281067 q 0,-0.455081 0.01058,-0.730247 0.01058,-0.275165 0.03175,-0.571498 -0.169333,0.169333 -0.306916,0.285749 -0.137582,0.116417 -0.349248,0.296333 l -0.804331,0.656163 -0.4868312,-0.624414 2.0425762,-1.587495 h 0.772581 z"
       id="text4"
       style="fill:#f9f9f9;stroke-width:0.79375;stroke-linecap:round;stroke-linejoin:round"
       aria-label="1"
       inkscape:label="1text" />
    <circle
       style="fill:none;stroke:#1e90ff;stroke-width:2.11667;stroke-miterlimit:0;stroke-dasharray:none;stroke-dashoffset:0;stroke-opacity:1;paint-order:normal"
       id="path18"
       cx="33.673882"
       cy="-24.689022"
       r="5.2916665"
       inkscape:label="blue"
       transform="rotate(-45)" />
    <path
       d="m 6.9050693,-48.947919 h -0.70111 v -4.068062 q 0,-0.350554 0.0082,-0.562517 0.0082,-0.211963 0.02445,-0.440231 -0.130443,0.130439 -0.236425,0.220116 -0.10598,0.08968 -0.269029,0.228267 l -0.619583,0.50545 -0.375012,-0.480992 1.573418,-1.222864 h 0.595128 z"
       id="path19"
       style="fill:#f9f9f9;stroke-width:0.79375;stroke-linecap:round;stroke-linejoin:round"
       aria-label="1"
       inkscape:label="1path" />
    <circle
       style="display:none;fill:none;stroke:#00ff00;stroke-width:2.11667;stroke-miterlimit:0;stroke-dasharray:4.23333;stroke-dashoffset:0;stroke-opacity:1;paint-order:normal"
       id="circle19"
       cx="2.8828273"
       cy="8.5396862"
       r="5.2916665"
       inkscape:label="green"
       transform="rotate(-26.4)" />
    <path
       d="M 8.2473983,-38.364585 H 4.4526016 v -0.586907 l 1.5034467,-1.519527 q 0.434151,-0.43415 0.731624,-0.771823 0.297474,-0.337673 0.450231,-0.659266 0.152757,-0.329633 0.152757,-0.715545 0,-0.474349 -0.281395,-0.715544 -0.281393,-0.249235 -0.731624,-0.249235 -0.418072,0 -0.739665,0.144717 -0.313552,0.144717 -0.643185,0.401992 l -0.3778717,-0.47435 q 0.3376727,-0.281394 0.7718227,-0.47435 0.442191,-0.200996 0.988899,-0.200996 0.803983,0 1.270293,0.410031 0.46631,0.401992 0.46631,1.117536 0,0.450231 -0.184916,0.844182 -0.184916,0.393952 -0.514549,0.779863 -0.329633,0.377872 -0.771823,0.812023 l -1.197935,1.181854 v 0.03216 h 2.902377 z"
       id="path20"
       style="font-size:10.5833px;fill:#f9f9f9;stroke-width:0.79375;stroke-linecap:round;stroke-linejoin:round"
       aria-label="2"
       inkscape:label="2path" />
    <path
       style="fill:none;stroke:#00ff00;stroke-width:2.11667;stroke-miterlimit:0;stroke-dasharray:none;stroke-dashoffset:0;stroke-opacity:1;paint-order:normal"
       id="circle5"
       inkscape:label="green"
       transform="rotate(-45)"
       sodipodi:type="arc"
       sodipodi:cx="33.673882"
       sodipodi:cy="-24.689022"
       sodipodi:rx="5.2916665"
       sodipodi:ry="5.2916665"
       sodipodi:start="0.39168649"
       sodipodi:end="1.1774901"
       sodipodi:open="true"
       sodipodi:arc-type="arc"
       d="m 38.564792,-22.66894 a 5.2916665,5.2916665 0 0 1 -2.862909,2.86755"
       inkscape:transform-center-x="-5.0892379"
       inkscape:transform-center-y="-0.0039590022" />
    <path
       style="fill:none;stroke:#00ff00;stroke-width:2.11667;stroke-miterlimit:0;stroke-dasharray:none;stroke-dashoffset:0;stroke-opacity:1;paint-order:normal"
       id="path21"
       inkscape:label="green"
       sodipodi:type="arc"
       sodipodi:cx="-24.689022"
       sodipodi:cy="-33.673882"
       sodipodi:rx="5.2916665"
       sodipodi:ry="5.2916665"
       sodipodi:start="0.39168649"
       sodipodi:end="1.1774901"
       sodipodi:open="true"
       sodipodi:arc-type="arc"
       d="m -19.798112,-31.6538 a 5.2916665,5.2916665 0 0 1 -2.862909,2.86755"
       inkscape:transform-center-x="-0.0039590355"
       inkscape:transform-center-y="5.0892379"
       transform="rotate(45)" />
    <path
       style="fill:none;stroke:#00ff00;stroke-width:2.11667;stroke-miterlimit:0;stroke-dasharray:none;stroke-dashoffset:0;stroke-opacity:1;paint-order:normal"
       id="path22"
       inkscape:label="green"
       sodipodi:type="arc"
       sodipodi:cx="-33.673882"
       sodipodi:cy="24.689022"
       sodipodi:rx="5.2916665"
       sodipodi:ry="5.2916665"
       sodipodi:start="0.39168649"
       sodipodi:end="1.1774901"
       sodipodi:open="true"
       sodipodi:arc-type="arc"
       d="m -28.782971,26.709104 a 5.2916665,5.2916665 0 0 1 -2.86291,2.86755"
       inkscape:transform-center-x="5.0892379"
       inkscape:transform-center-y="0.0039589261"
       transform="rotate(135)" />
    <path
       style="fill:none;stroke:#00ff00;stroke-width:2.11667;stroke-miterlimit:0;stroke-dasharray:none;stroke-dashoffset:0;stroke-opacity:1;paint-order:normal"
       id="path23"
       inkscape:label="green"
       sodipodi:type="arc"
       sodipodi:cx="24.689022"
       sodipodi:cy="33.673882"
       sodipodi:rx="5.2916665"
       sodipodi:ry="5.2916665"
       sodipodi:start="0.39168649"
       sodipodi:end="1.1774901"
       sodipodi:open="true"
       sodipodi:arc-type="arc"
       d="m 29.579932,35.693963 a 5.2916665,5.2916665 0 0 1 -2.862909,2.867551"
       inkscape:transform-center-x="0.0039589639"
       inkscape:transform-center-y="-5.089238"
       transform="rotate(-135)" />
    <path
       d="M 8.2441417,9.2542181 H 4.449345 v -0.586907 l 1.5034467,-1.519527 q 0.434151,-0.43415 0.731624,-0.771823 0.297474,-0.337673 0.450231,-0.659266 0.152757,-0.329633 0.152757,-0.715545 0,-0.474349 -0.281395,-0.715544 -0.281393,-0.249235 -0.731624,-0.249235 -0.418072,0 -0.739665,0.144717 -0.313552,0.144717 -0.643185,0.401992 L 4.513663,4.1087301 q 0.3376727,-0.281394 0.7718227,-0.47435 0.442191,-0.200996 0.988899,-0.200996 0.803983,0 1.270293,0.410031 0.46631,0.401992 0.46631,1.117536 0,0.450231 -0.184916,0.844182 -0.184916,0.393952 -0.514549,0.779863 -0.329633,0.377872 -0.771823,0.812023 l -1.197935,1.181854 v 0.03216 h 2.902377 z"
       id="path20-5"
       style="font-size:10.5833px;fill:#f9f9f9;stroke-width:0.79375;stroke-linecap:round;stroke-linejoin:round"
       aria-label="2"
       inkscape:label="2path" />
    <g
       id="g4"
       transform="rotate(45.258108,6.3634111,6.3557507)">
      <circle
         style="fill:none;stroke:#1e90ff;stroke-width:2.11667;stroke-miterlimit:0;stroke-dasharray:none;stroke-dashoffset:0;stroke-opacity:1;paint-order:normal"
         id="path18-3"
         cx="-0.008019926"
         cy="8.9881153"
         r="5.2916665"
         inkscape:label="blue"
         transform="rotate(-45)" />
      <path
         style="fill:none;stroke:#00ff00;stroke-width:2.11667;stroke-miterlimit:0;stroke-dasharray:none;stroke-dashoffset:0;stroke-opacity:1;paint-order:normal"
         id="circle5-6"
         inkscape:label="green"
         transform="rotate(-45)"
         sodipodi:type="arc"
         sodipodi:cx="-0.008019926"
         sodipodi:cy="8.9881153"
         sodipodi:rx="5.2916665"
         sodipodi:ry="5.2916665"
         sodipodi:start="0.39168649"
         sodipodi:end="1.1774901"
         sodipodi:open="true"
         sodipodi:arc-type="arc"
         d="m 4.8828905,11.008197 a 5.2916665,5.2916665 0 0 1 -2.8629094,2.86755"
         inkscape:transform-center-x="-5.0892379"
         inkscape:transform-center-y="-0.0039590022" />
      <path
         style="fill:none;stroke:#00ff00;stroke-width:2.11667;stroke-miterlimit:0;stroke-dasharray:none;stroke-dashoffset:0;stroke-opacity:1;paint-order:normal"
         id="path21-2"
         inkscape:label="green"
         sodipodi:type="arc"
         sodipodi:cx="8.9881153"
         sodipodi:cy="0.0080196876"
         sodipodi:rx="5.2916665"
         sodipodi:ry="5.2916665"
         sodipodi:start="0.39168649"
         sodipodi:end="1.1774901"
         sodipodi:open="true"
         sodipodi:arc-type="arc"
         d="m 13.879026,2.0281013 a 5.2916665,5.2916665 0 0 1 -2.86291,2.8675504"
         inkscape:transform-center-x="-0.0039590355"
         inkscape:transform-center-y="5.0892379"
         transform="rotate(45)" />
      <path
         style="fill:none;stroke:#00ff00;stroke-width:2.11667;stroke-miterlimit:0;stroke-dasharray:none;stroke-dashoffset:0;stroke-opacity:1;paint-order:normal"
         id="path22-9"
         inkscape:label="green"
         sodipodi:type="arc"
         sodipodi:cx="0.0080194492"
         sodipodi:cy="-8.9881144"
         sodipodi:rx="5.2916665"
         sodipodi:ry="5.2916665"
         sodipodi:start="0.39168649"
         sodipodi:end="1.1774901"
         sodipodi:open="true"
         sodipodi:arc-type="arc"
         d="M 4.8989299,-6.9680327 A 5.2916665,5.2916665 0 0 1 2.0360204,-4.1004824"
         inkscape:transform-center-x="5.0892379"
         inkscape:transform-center-y="0.0039589261"
         transform="rotate(135)" />
      <path
         style="fill:none;stroke:#00ff00;stroke-width:2.11667;stroke-miterlimit:0;stroke-dasharray:none;stroke-dashoffset:0;stroke-opacity:1;paint-order:normal"
         id="path23-1"
         inkscape:label="green"
         sodipodi:type="arc"
         sodipodi:cx="-8.9881153"
         sodipodi:cy="-0.0080206413"
         sodipodi:rx="5.2916665"
         sodipodi:ry="5.2916665"
         sodipodi:start="0.39168649"
         sodipodi:end="1.1774901"
         sodipodi:open="true"
         sodipodi:arc-type="arc"
         d="M -4.0972049,2.012061 A 5.2916665,5.2916665 0 0 1 -6.9601143,4.8796113"
         inkscape:transform-center-x="0.0039589639"
         inkscape:transform-center-y="-5.089238"
         transform="rotate(-135)" />
    </g>
  </g>
  <g
     inkscape:groupmode="layer"
     id="layer7"
     inkscape:label="astrosigns">
    <text
       xml:space="preserve"
       style="font-style:normal;font-variant:normal;font-weight:300;font-stretch:normal;font-size:10.5833px;font-family:'open sans light astro';-inkscape-font-specification:'open sans light astro Light';text-align:start;writing-mode:lr-tb;direction:ltr;text-anchor:start;display:none;fill:#7ce800;fill-opacity:1;stroke:none;stroke-width:1.5875;stroke-miterlimit:0;stroke-dasharray:none"
       x="-79.527962"
       y="46.180099"
       id="text2"
       sodipodi:insensitive="true"
       inkscape:label="textoriginal"><tspan
         sodipodi:role="line"
         id="tspan2"
         style="font-style:normal;font-variant:normal;font-weight:normal;font-stretch:normal;font-family:'open sans light astro';-inkscape-font-specification:'open sans light astro Light';fill:#7ce800;fill-opacity:1;stroke:none;stroke-width:1.5875;stroke-dasharray:none"
         x="-79.527962"
         y="46.180099">ƒ Ɠ Ɣ ƕ Ɩ Ɨ Ƙ ƙ ƚ ƛ Ɯ Ɲ</tspan></text>
    <path
       style="font-size:10.5833px;font-family:'open sans light astro';-inkscape-font-specification:'open sans light astro Light';fill:#ffffff;stroke:#000000;stroke-width:0.185208;stroke-linecap:round;stroke-linejoin:round;stroke-miterlimit:0;stroke-dasharray:none;stroke-opacity:1"
       d="m -174.90181,2.2862768 c 0.62011,0 1.14721,0.220486 1.58129,0.661457 0.44097,0.43408 0.66146,0.957733 0.66146,1.570958 0,0.7165767 -0.28594,1.3022417 -0.85783,1.7569927 l -0.5271,-0.744138 c 0.31695,-0.261827 0.47543,-0.599445 0.47543,-1.0128547 0,-0.40652 -0.16192,-0.747583 -0.48576,-1.02319 -0.25494,-0.206705 -0.53744,-0.310058 -0.84749,-0.310058 -0.35829,0 -0.6649,0.124023 -0.91984,0.372069 -0.13092,0.124023 -0.23427,0.268717 -0.31006,0.434081 -0.0689,0.172254 -0.10335,0.344508 -0.10335,0.516763 v 5.8600882 h -0.90951 V 4.5083568 c 0,-0.385849 -0.14813,-0.709687 -0.44441,-0.971514 -0.26183,-0.234266 -0.56155,-0.351399 -0.89917,-0.351399 -0.38584,0 -0.71657,0.148139 -0.99218,0.444416 -0.22738,0.261827 -0.34106,0.558104 -0.34106,0.888832 0,0.4065197 0.15503,0.7441377 0.46508,1.0128547 l -0.5271,0.744138 c -0.56498,-0.447861 -0.84748,-1.033525 -0.84748,-1.7569927 0,-0.571884 0.19293,-1.071421 0.57877,-1.498612 0.44786,-0.489202 1.00252,-0.733803 1.66397,-0.733803 0.37896,0 0.72002,0.07579 1.02319,0.227376 0.30317,0.144693 0.56844,0.368624 0.79582,0.671791 0.22737,-0.303167 0.48231,-0.527098 0.7648,-0.671791 0.28939,-0.151584 0.62357,-0.227376 1.00253,-0.227376 z"
       id="text1-3"
       aria-label="ƒ Ɠ Ɣ ƕ Ɩ Ɨ Ƙ ƙ ƚ ƛ Ɯ Ɲ"
       inkscape:label="ari"
       sodipodi:nodetypes="scsccscsccsccscscsccscscccs" />
    <path
       style="font-size:10.5833px;font-family:'open sans light astro';-inkscape-font-specification:'open sans light astro Light';fill:#ffffff;stroke:#000000;stroke-width:0.185208;stroke-linecap:round;stroke-linejoin:round;stroke-miterlimit:0;stroke-dasharray:none;stroke-opacity:1"
       d="m -164.52413,4.8907605 c -0.74414,0 -1.3677,0.275607 -1.87068,0.82682 -0.22049,0.241156 -0.38585,0.502983 -0.4961,0.78548 -0.11024,0.275607 -0.16536,0.578774 -0.16536,0.909502 0,0.654566 0.22049,1.223005 0.66146,1.705317 0.50298,0.551213 1.12654,0.82682 1.87068,0.82682 0.64767,0 1.21267,-0.220485 1.69498,-0.661456 0.5581,-0.496092 0.83715,-1.119652 0.83715,-1.870681 0,-0.682127 -0.24804,-1.274681 -0.74413,-1.777664 -0.4961,-0.496092 -1.0921,-0.744138 -1.788,-0.744138 z m 1.79833,-0.4547507 c 0.54433,0.330728 0.96807,0.7785887 1.27124,1.3435827 0.1378,0.254936 0.24115,0.516762 0.31006,0.785479 0.0689,0.268717 0.10335,0.551214 0.10335,0.847491 0,0.475422 -0.0896,0.926728 -0.26872,1.353918 -0.18603,0.427191 -0.43752,0.79926 -0.75447,1.116208 -0.31695,0.3169465 -0.68902,0.5649925 -1.11621,0.7441375 -0.4203,0.186035 -0.86816,0.279052 -1.34358,0.279052 -0.48232,0 -0.93362,-0.09302 -1.35392,-0.279052 -0.4203,-0.179145 -0.78893,-0.427191 -1.10587,-0.7441375 -0.34451,-0.344509 -0.60289,-0.720023 -0.77515,-1.126543 -0.16536,-0.41341 -0.24804,-0.861271 -0.24804,-1.343583 0,-0.585665 0.13436,-1.129988 0.40307,-1.63297 0.30317,-0.564994 0.73036,-1.0128547 1.28157,-1.3435827 -0.44786,-0.275607 -0.81648,-0.627005 -1.10587,-1.054196 -0.22737,-0.344509 -0.38929,-0.709688 -0.48576,-1.095537 h 1.0542 c 0.14469,0.420301 0.39618,0.775144 0.75447,1.064531 0.45475,0.38585 0.98185,0.578775 1.5813,0.578775 0.52365,0 1.00251,-0.155029 1.4366,-0.465087 0.41341,-0.296277 0.70969,-0.689017 0.88883,-1.178219 h 1.0542 c -0.10336,0.440971 -0.29284,0.850936 -0.56844,1.229895 -0.2825,0.378959 -0.62012,0.685572 -1.01286,0.919838 z"
       id="path24"
       aria-label="ƒ Ɠ Ɣ ƕ Ɩ Ɨ Ƙ ƙ ƚ ƛ Ɯ Ɲ"
       inkscape:label="tau"
       sodipodi:nodetypes="sccscscscsccsscscscscsccccccsccccc" />
    <path
       style="font-size:10.5833px;font-family:'open sans light astro';-inkscape-font-specification:'open sans light astro Light';fill:#ffffff;stroke:#000000;stroke-width:0.185208;stroke-linecap:round;stroke-linejoin:round;stroke-miterlimit:0;stroke-dasharray:none;stroke-opacity:1"
       d="m -152.89277,3.9295828 c -0.46854,0 -0.91295,-0.04479 -1.33325,-0.134359 v 5.0642747 c 0.44097,-0.08957 0.88538,-0.134359 1.33325,-0.134359 0.46164,0 0.90605,0.04479 1.33324,0.134359 V 3.7952238 c -0.44786,0.08957 -0.89227,0.134359 -1.33324,0.134359 z m -2.21176,5.1572907 V 3.5471778 c -0.44097,-0.199815 -0.78548,-0.389294 -1.03352,-0.568439 0.13091,-0.158474 0.32383,-0.39274 0.57877,-0.702797 0.6408,0.551213 1.52963,0.82682 2.66651,0.82682 1.16443,-0.04134 2.05326,-0.316947 2.66649,-0.82682 0.13091,0.144693 0.33072,0.358289 0.59944,0.640786 -0.2067,0.220485 -0.56155,0.430635 -1.06453,0.63045 v 5.5396957 c 0.44786,0.289387 0.7717,0.527098 0.97152,0.713133 l -0.5271,0.5581025 c -0.58567,-0.5718835 -1.46761,-0.8474905 -2.64582,-0.8268195 -1.15066,0.05512 -2.03605,0.330727 -2.65617,0.8268195 -0.13092,-0.110243 -0.32729,-0.279052 -0.58911,-0.5064265 0.26182,-0.234266 0.60633,-0.489202 1.03352,-0.764809 z"
       id="path25"
       aria-label="ƒ Ɠ Ɣ ƕ Ɩ Ɨ Ƙ ƙ ƚ ƛ Ɯ Ɲ"
       inkscape:label="gem"
       sodipodi:nodetypes="sccsccsccccccccccccccc" />
    <path
       style="font-size:10.5833px;font-family:'open sans light astro';-inkscape-font-specification:'open sans light astro Light';fill:#ffffff;stroke:#000000;stroke-width:0.185208;stroke-linecap:round;stroke-linejoin:round;stroke-miterlimit:0;stroke-dasharray:none;stroke-opacity:1"
       d="m -142.77865,5.6969105 c 0.53744,0 0.99563,0.18948 1.37459,0.568439 0.38585,0.385849 0.57878,0.850936 0.57878,1.395259 0,0.358289 -0.0861,0.689017 -0.25839,0.992184 -0.17914,0.303168 -0.4203,0.540879 -0.72346,0.713133 0.15847,0.04134 0.32383,0.07579 0.49609,0.103352 0.17225,0.03445 0.33417,0.05168 0.48576,0.05168 0.41341,0 0.78203,-0.03445 1.10587,-0.103353 0.37207,-0.07579 0.72347,-0.19637 1.0542,-0.361734 0.85438,-0.4203 1.51583,-1.05075 1.98437,-1.891351 v 1.477941 c -0.24805,0.261827 -0.51677,0.496092 -0.80616,0.702797 -0.28938,0.199815 -0.60289,0.37896 -0.9405,0.537434 -0.37896,0.1722535 -0.7717,0.2997215 -1.17822,0.3824035 -0.40652,0.07579 -0.82338,0.113688 -1.25057,0.113688 -0.22048,0 -0.44097,-0.01723 -0.66146,-0.05168 -0.22048,-0.03445 -0.46853,-0.09302 -0.74413,-0.1757 -0.50988,-0.137803 -0.97152,-0.3479525 -1.38494,-0.6304495 -0.32384,-0.220485 -0.58911,-0.485757 -0.79581,-0.795815 -0.19982,-0.310057 -0.29973,-0.664901 -0.29973,-1.064531 0,-0.537433 0.18948,-0.999075 0.56844,-1.384924 0.38585,-0.385849 0.85095,-0.578774 1.39527,-0.578773 z m 0,0.868161 c -0.31005,0 -0.57188,0.110243 -0.78549,0.330728 -0.2067,0.227376 -0.31005,0.482312 -0.31005,0.764809 0,0.303167 0.10335,0.561549 0.31005,0.775144 0.21361,0.213595 0.47544,0.320393 0.78549,0.320393 0.31695,0 0.58567,-0.120578 0.80615,-0.361734 0.18604,-0.213595 0.27905,-0.458196 0.27905,-0.733803 0,-0.316948 -0.11713,-0.585665 -0.35139,-0.80615 -0.11025,-0.09646 -0.22393,-0.168809 -0.34107,-0.21704 -0.12402,-0.04823 -0.25493,-0.07235 -0.39274,-0.07235 z m 4.13411,0.403075 c -0.61323,0 -1.11621,-0.241156 -1.50895,-0.723468 -0.30317,-0.365179 -0.45475,-0.782034 -0.45475,-1.250565 0,-0.179145 0.0241,-0.3513987 0.0724,-0.5167627 0.0413,-0.165364 0.11024,-0.327283 0.2067,-0.485757 0.15848,-0.275607 0.39619,-0.509872 0.71313,-0.702797 -0.19981,-0.04823 -0.37551,-0.08613 -0.52709,-0.113688 -0.15159,-0.02756 -0.30317,-0.04134 -0.45476,-0.04134 -0.42719,0 -0.83026,0.04134 -1.20922,0.124023 -0.37207,0.08268 -0.7338,0.21704 -1.0852,0.403075 -0.79927,0.440971 -1.41594,1.047306 -1.85002,1.8190047 V 4.0122658 c 0.46164,-0.489202 0.99907,-0.881942 1.61231,-1.178219 0.39963,-0.199815 0.80959,-0.344509 1.22989,-0.434081 0.42719,-0.08957 0.87161,-0.134358 1.33325,-0.134358 0.17915,0 0.36518,0.01723 0.5581,0.05168 0.19982,0.02756 0.42375,0.07579 0.6718,0.144694 0.45475,0.117133 0.87849,0.282497 1.27123,0.496092 0.39274,0.220485 0.72003,0.499537 0.98185,0.837155 0.26872,0.337619 0.40308,0.737249 0.40308,1.1988897 0,0.537433 -0.19293,0.999074 -0.57878,1.384924 -0.38585,0.392739 -0.84749,0.589109 -1.38492,0.589109 z m 0,-0.878496 c 0.30316,0 0.56154,-0.106798 0.77514,-0.320393 0.21359,-0.213595 0.32039,-0.471977 0.32039,-0.775144 0,-0.3169477 -0.12058,-0.5891097 -0.36173,-0.8164847 -0.10335,-0.08957 -0.21704,-0.158474 -0.34106,-0.206705 -0.11714,-0.04823 -0.24805,-0.07235 -0.39274,-0.07235 -0.2825,0 -0.5271,0.09302 -0.73381,0.279052 -0.24115,0.220485 -0.36173,0.492647 -0.36173,0.8164847 0,0.303167 0.1068,0.561549 0.32039,0.775144 0.2136,0.213595 0.47198,0.320393 0.77515,0.320393 z"
       id="path26"
       aria-label="ƒ Ɠ Ɣ ƕ Ɩ Ɨ Ƙ ƙ ƚ ƛ Ɯ Ɲ"
       inkscape:label="can"
       sodipodi:nodetypes="ssscccscccccccsscccscsscscscsccssscscccssccccccsccccscsssssccscssss" />
    <path
       style="font-size:10.5833px;font-family:'open sans light astro';-inkscape-font-specification:'open sans light astro Light';fill:#ffffff;stroke:#000000;stroke-width:0.185208;stroke-linecap:round;stroke-linejoin:round;stroke-miterlimit:0;stroke-dasharray:none;stroke-opacity:1"
       d="m -129.9916,6.4221598 c -0.19981,0 -0.37551,0.0724 -0.5271,0.21704 -0.14469,0.14469 -0.21704,0.32039 -0.21704,0.5271 0,0.18603 0.0655,0.34795 0.19637,0.48575 0.1447,0.15847 0.32729,0.23771 0.54777,0.23771 0.19293,0 0.36863,-0.0689 0.5271,-0.2067 0.15158,-0.13781 0.22737,-0.31006 0.22737,-0.51676 0,-0.2136 -0.0827,-0.39619 -0.24804,-0.54777 -0.14469,-0.13091 -0.3135,-0.19637 -0.50643,-0.19637 z m 6.50088,4.4958372 c -0.44097,0.5581 -0.97152,0.83715 -1.59163,0.83715 -0.30317,0 -0.57533,-0.0724 -0.81649,-0.21704 -0.24115,-0.14469 -0.4513,-0.33417 -0.63045,-0.56844 -0.26872,-0.37207 -0.40307,-0.75791 -0.40307,-1.157541 0,-0.0896 0.003,-0.1722597 0.0103,-0.2480497 0.0758,-0.4823065 0.23771,-0.9715165 0.48576,-1.4676065 0.14469,-0.24115 0.36173,-0.60289 0.65112,-1.0852 0.10335,-0.17915 0.31005,-0.53399 0.62011,-1.06453 0.22738,-0.40652 0.39619,-0.75447 0.50643,-1.04386 0.12402,-0.32384 0.18603,-0.60634 0.18603,-0.847494 0,-0.3513987 -0.0827,-0.6649007 -0.24804,-0.9405077 -0.17226,-0.296277 -0.44442,-0.561549 -0.81649,-0.795814 -0.44097,-0.289387 -0.93362,-0.434081 -1.47794,-0.434081 -0.38585,0 -0.75103,0.07235 -1.09554,0.21704 -0.33762,0.144694 -0.62356,0.354844 -0.85782,0.630451 -0.33073,0.440971 -0.4961,0.912946 -0.4961,1.4159257 0,0.13781 0.0138,0.2825 0.0413,0.43408 0.0827,0.48231 0.31695,1.04042 0.7028,1.67431 0.19982,0.26872 0.29972,0.57189 0.29972,0.90951 0,0.4203 -0.15503,0.77859 -0.46508,1.07486 -0.30317,0.29628 -0.67179,0.44442 -1.10587,0.44442 -0.45476,0 -0.84061,-0.16536 -1.15755,-0.49609 -0.26872,-0.29628 -0.40308,-0.63734 -0.40308,-1.02319 0,-0.40652 0.14125,-0.75792 0.42375,-1.0542 0.14469,-0.15847 0.29972,-0.27561 0.46508,-0.3514 0.18604,-0.0896 0.37896,-0.13436 0.57878,-0.13436 -0.1447,-0.33073 -0.25494,-0.64423 -0.33073,-0.9405 -0.0758,-0.29628 -0.11369,-0.56155 -0.11369,-0.7958177 0,-0.241156 0.0482,-0.489202 0.1447,-0.744138 0.10335,-0.254936 0.25149,-0.523653 0.44441,-0.80615 0.32384,-0.475421 0.76825,-0.830265 1.33325,-1.064531 0.46853,-0.186035 0.99907,-0.27905197 1.59163,-0.27905197 0.30316,0 0.59255,0.02412 0.86816,0.07235 0.27561,0.04823 0.52021,0.117135 0.7338,0.206705 0.58567,0.254937 1.04042,0.58222 1.36426,0.981849 0.37207,0.468532 0.5581,1.026636 0.5581,1.674311 0,0.7579137 -0.27905,1.5916237 -0.83715,2.5011337 -0.3514,0.5581 -0.68213,1.06108 -0.99219,1.50894 -0.31695,0.47543 -0.5271,0.93362 -0.63045,1.3745895 -0.0344,0.144697 -0.0517,0.292837 -0.0517,0.444417 0,0.2411607 0.0551,0.4616507 0.16537,0.6614607 0.15158,0.25493 0.39274,0.39274 0.72346,0.41341 h 0.0724 0.0827 c 0.24805,-0.0345 0.50643,-0.17572 0.77515,-0.42375 0.2756,-0.24805 0.50642,-0.5202106 0.69246,-0.8164807 v 1.3229107 z"
       id="path27"
       aria-label="ƒ Ɠ Ɣ ƕ Ɩ Ɨ Ƙ ƙ ƚ ƛ Ɯ Ɲ"
       inkscape:label="leo"
       sodipodi:nodetypes="scscscscsssscscccccsccsccsccscscscccsscccssccscccscccccccs" />
    <path
       style="font-size:10.5833px;font-family:'open sans light astro';-inkscape-font-specification:'open sans light astro Light';fill:#ffffff;stroke:#000000;stroke-width:0.185208;stroke-linecap:round;stroke-linejoin:round;stroke-miterlimit:0;stroke-dasharray:none;stroke-opacity:1"
       d="m -113.42511,3.8884775 c 0,-0.4134067 -0.0586,-0.6959067 -0.17569,-0.8474867 -0.0689,-0.0827 -0.1447,-0.14814 -0.22738,-0.19637 -0.0827,-0.0413 -0.17225,-0.062 -0.26872,-0.062 -0.10335,0 -0.19637,0.007 -0.27905,0.0207 -0.0827,0.0138 -0.16536,0.0414 -0.24804,0.0827 -0.18604,0.0965 -0.33418,0.22737 -0.44442,0.39274 0.0207,0.15158 0.031,0.3548397 0.031,0.6097767 V 9.169854 h -0.89917 V 3.6714975 c 0,-0.0758 -0.003,-0.1515867 -0.0103,-0.2273767 -0.0138,-0.0827 -0.031,-0.15158 -0.0517,-0.2067 -0.0276,-0.062 -0.0655,-0.12746 -0.11369,-0.19637 -0.1378,-0.17915 -0.32728,-0.26872 -0.56844,-0.26872 -0.2756,0 -0.50298,0.0965 -0.68212,0.28939 -0.0344,0.0483 -0.0896,0.11717 -0.16537,0.2067 V 9.169854 h -0.88883 V 1.5734408 c 0.0689,-0.0827 0.21359,-0.2446 0.43408,-0.48576 h 0.45475 v 1.56063 c 0.0207,-0.0345 0.062,-0.0999 0.12402,-0.19637 0.13781,-0.17915 0.29284,-0.31351 0.46509,-0.40308 0.17915,-0.0896 0.36174,-0.13435 0.54777,-0.13435 0.31006,0 0.59256,0.11713 0.84749,0.35139 0.13781,0.12403 0.2446,0.26528 0.3204,0.42375 0.0482,-0.10335 0.12402,-0.20326 0.22737,-0.29972 0.13781,-0.15159 0.2825,-0.26183 0.43408,-0.33073 0.20671,-0.0965 0.43753,-0.14469 0.69246,-0.14469 0.29628,0 0.57533,0.11713 0.83716,0.35139 0.18604,0.17915 0.32039,0.40652 0.40308,0.68213 0.062,0.21359 0.093,0.50987 0.093,0.8888367 0.70968,0.0965 1.26434,0.42374 1.66397,0.98184 0.3514,0.48231 0.5271,1.06453 0.5271,1.74666 0,0.52365 -0.12747,1.06798 -0.38241,1.63297 -0.22737,0.48921 -0.51676,0.9439565 -0.86816,1.3642562 -0.11713,0.11713 -0.28594,0.29628 -0.50642,0.5374303 0.2756,0.26872 0.58222,0.40308 0.91983,0.40308 0.15848,0 0.30662,-0.0345 0.44442,-0.10336 0.15158,-0.062 0.27905,-0.13435 0.38241,-0.21704 v 0.93018 c -0.2136,0.1378 -0.48921,0.2067 -0.82683,0.2067 -0.31005,0 -0.60289,-0.0586 -0.87849,-0.1757 -0.26872,-0.11713 -0.50643,-0.27905 -0.71314,-0.48575 -0.21359,0.12402 -1.02319,0.50987 -2.42878,1.15754 -0.0413,-0.14469 -0.0861,-0.27561 -0.13436,-0.39274 -0.0413,-0.12402 -0.0724,-0.2446 -0.093,-0.36173 l 0.69246,-0.32039 c 0.46853,-0.20671 0.96463,-0.4582 1.48828,-0.7544802 -0.11713,-0.2824901 -0.1757,-0.5546501 -0.1757,-0.8164798 V 3.8885375 Z m 0.88884,0.85783 V 9.169794 c -0.007,0.062 0,0.13779 0.0207,0.2273797 0.21359,-0.1998197 0.41685,-0.4409797 0.60978,-0.7234762 0.19292,-0.27561 0.35829,-0.59255 0.49609,-0.95084 0.0689,-0.18603 0.12058,-0.36518 0.15503,-0.53743 0.0345,-0.17225 0.0517,-0.3514 0.0517,-0.53743 0,-0.57878 -0.16537,-1.04731 -0.49609,-1.4056 -0.22738,-0.24805 -0.50643,-0.41341 -0.83716,-0.49609 z"
       id="path28"
       aria-label="ƒ Ɠ Ɣ ƕ Ɩ Ɨ Ƙ ƙ ƚ ƛ Ɯ Ɲ"
       inkscape:label="vir"
       sodipodi:nodetypes="sccssccsccscccsccccccccccsccccsccccscccscccscccccccscscccccsscsc" />
    <path
       style="font-size:10.5833px;font-family:'open sans light astro';-inkscape-font-specification:'open sans light astro Light';fill:#ffffff;stroke:#000000;stroke-width:0.185208;stroke-linecap:round;stroke-linejoin:round;stroke-miterlimit:0;stroke-dasharray:none;stroke-opacity:1"
       d="m -98.636627,6.1413275 h 1.643306 v 0.84749 h -2.501132 v -0.80615 c 0,-0.22737 -0.0379,-0.43408 -0.113687,-0.62012 -0.07579,-0.18603 -0.18259,-0.3514 -0.320392,-0.49609 -0.275608,-0.3169467 -0.640788,-0.4754167 -1.095538,-0.4754167 -0.44097,0 -0.80615,0.15847 -1.09553,0.4754167 -0.13781,0.14469 -0.24461,0.3135 -0.3204,0.50643 -0.0689,0.18603 -0.10335,0.38929 -0.10335,0.60978 v 0.80615 h -2.51147 v -0.84749 h 1.65364 c 0,-0.33762 0.0551,-0.64423 0.16537,-0.91984 0.11024,-0.2825 0.28249,-0.5443267 0.51676,-0.7854767 0.46853,-0.46853 1.03353,-0.7028 1.69498,-0.7028 0.61323,0 1.150659,0.20671 1.612299,0.62012 0.254937,0.24115 0.447861,0.5098667 0.578775,0.8061467 0.130913,0.30317 0.196369,0.63045 0.196369,0.98185 z m -6.418193,1.94303 h 8.061499 v 0.84749 h -8.061499 z"
       id="path29"
       aria-label="ƒ Ɠ Ɣ ƕ Ɩ Ɨ Ƙ ƙ ƚ ƛ Ɯ Ɲ"
       inkscape:label="lib"
       sodipodi:nodetypes="ccccsscsccsccccccscccccccc" />
    <path
       style="font-size:10.5833px;font-family:'open sans light astro';-inkscape-font-specification:'open sans light astro Light';fill:#ffffff;stroke:#000000;stroke-width:0.185208;stroke-linecap:round;stroke-linejoin:round;stroke-miterlimit:0;stroke-dasharray:none;stroke-opacity:1"
       d="m -84.959943,10.091217 c -0.124023,0.316949 -0.334173,0.623559 -0.63045,0.919829 -0.199815,0.18604 -0.403075,0.32729 -0.60978,0.42375 -0.206705,0.10335 -0.42719,0.15503 -0.661456,0.15503 -0.241156,0 -0.458196,-0.0413 -0.651121,-0.12403 -0.192925,-0.0827 -0.361734,-0.21015 -0.506427,-0.3824 -0.124023,-0.15159 -0.217041,-0.31695 -0.279052,-0.49609 -0.05512,-0.17225 -0.08268,-0.36173 -0.08268,-0.568439 0,-0.2342701 0.0379,-0.4581998 0.113688,-0.6717898 0.03445,-0.10335 0.07579,-0.217037 0.124023,-0.3410665 0.05512,-0.11713 0.110242,-0.23082 0.165364,-0.34106 0.110242,-0.22049 0.22393,-0.43064 0.341063,-0.63045 0.110243,-0.19293 0.223931,-0.39963 0.341063,-0.62012 0.289388,-0.59944 0.471977,-1.223 0.547769,-1.87068 0.0069,-0.12402 0.01033,-0.24115 0.01033,-0.3514 0,-0.35829 -0.05512,-0.68901 -0.165364,-0.99218 -0.06201,-0.14469 -0.120578,-0.272157 -0.175699,-0.3824067 -0.0689,-0.13091 -0.155029,-0.25494 -0.258382,-0.37207 -0.09646,-0.11713 -0.19637,-0.2067 -0.299722,-0.26871 -0.124023,-0.0827 -0.251491,-0.12403 -0.382404,-0.12403 -0.117133,0 -0.213596,0.007 -0.289388,0.0207 -0.08268,0.0138 -0.168809,0.0448 -0.258381,0.093 -0.165364,0.0827 -0.313501,0.2136 -0.444415,0.39274 0.02067,0.15159 0.03101,0.3513997 0.03101,0.5994467 v 5.2916465 h -0.899168 V 4.1691307 c 0,-0.3996267 -0.05857,-0.6821267 -0.175699,-0.8474967 -0.124023,-0.18603 -0.313503,-0.27905 -0.568438,-0.27905 -0.172254,0 -0.327283,0.0482 -0.465087,0.14469 -0.110243,0.0689 -0.213596,0.15848 -0.310058,0.26872 -0.01378,0.0207 -0.0379,0.0482 -0.07235,0.0827 v 5.9117632 h -0.888829 V 1.843714 c 0.0689,-0.0827 0.213595,-0.24116 0.434081,-0.47542 h 0.454751 v 1.56062 c 0.02067,-0.0345 0.06201,-0.0999 0.124023,-0.19637 0.137803,-0.17915 0.292833,-0.31351 0.465087,-0.40308 0.172254,-0.0896 0.358289,-0.13435 0.558103,-0.13435 0.303168,0 0.585664,0.11713 0.847491,0.35139 0.130913,0.12403 0.234266,0.26528 0.310057,0.42375 0.04134,-0.0896 0.117134,-0.19293 0.227376,-0.31006 0.151583,-0.15158 0.299721,-0.26182 0.444415,-0.33073 0.199815,-0.0896 0.42719,-0.13435 0.682127,-0.13435 0.296277,0 0.575329,0.12058 0.837155,0.36173 0.268717,0.23427 0.489202,0.51676 0.661456,0.84749 0.179145,0.33073 0.299723,0.7062367 0.361734,1.1265467 0.02067,0.11713 0.03101,0.23426 0.03101,0.35139 0.0069,0.11713 0.01033,0.26183 0.01033,0.43409 v 0.25838 c 0,0.16536 -0.01723,0.32728 -0.05168,0.48575 -0.03445,0.15847 -0.08268,0.32384 -0.144694,0.4961 -0.103352,0.31695 -0.22393,0.60978 -0.361733,0.87849 -0.137804,0.26183 -0.289387,0.52365 -0.454752,0.78548 -0.103352,0.17225 -0.258381,0.43753 -0.465086,0.79582 -0.192925,0.3307265 -0.289387,0.6476662 -0.289387,0.9508361 v 0.1446992 c 0.04823,0.46853 0.282497,0.7338 0.702797,0.79581 0.02067,0.007 0.05512,0.0103 0.103353,0.0103 0.303167,0 0.599444,-0.15158 0.888832,-0.45475 0.165363,-0.18603 0.316948,-0.416849 0.454751,-0.6924591 -0.05512,-0.0207 -0.141247,-0.0482 -0.258383,-0.0827 -0.07579,-0.007 -0.141248,-0.0138 -0.196368,-0.0207 -0.06201,-0.007 -0.130915,-0.0103 -0.206706,-0.0103 h -0.103352 -0.08268 c -0.186035,0.0207 -0.372069,0.0689 -0.558104,0.14469 0.585665,-0.3927397 1.467606,-0.9887362 2.645824,-1.7879962 -0.0069,0.53743 -0.01033,1.6088462 -0.01033,3.2142553 -0.04134,-0.22737 -0.08957,-0.39618 -0.144694,-0.50642 -0.103352,-0.19982 -0.22393,-0.36863 -0.361734,-0.50643 -0.03445,-0.0275 -0.08613,-0.0689 -0.155028,-0.124019 z"
       id="path30"
       aria-label="ƒ Ɠ Ɣ ƕ Ɩ Ɨ Ƙ ƙ ƚ ƛ Ɯ Ɲ"
       inkscape:label="sco"
       sodipodi:nodetypes="sccssccsccscccsccccscccsccscsccccccccccssccccsccccsssccccsccsccccscccccccss" />
    <path
       style="font-size:10.5833px;font-family:'open sans light astro';-inkscape-font-specification:'open sans light astro Light';fill:#ffffff;stroke:#000000;stroke-width:0.185208;stroke-linecap:round;stroke-linejoin:round;stroke-miterlimit:0;stroke-dasharray:none;stroke-opacity:1"
       d="m -72.344459,4.5910408 c -0.475417,0.4547467 -1.429704,1.3745867 -2.862855,2.7595067 0.16537,0.15159 0.499537,0.4582 1.002514,0.91984 -0.0827,0.0965 -0.258377,0.28594 -0.527097,0.56844 l -0.992174,-0.86816 c -0.392737,0.39274 -1.188554,1.18511 -2.387425,2.3771065 -0.10336,-0.10335 -0.31351,-0.313496 -0.630447,-0.6304465 0.385837,-0.38585 1.164424,-1.15066 2.335745,-2.29443 -0.165357,-0.14469 -0.492637,-0.43753 -0.981844,-0.8785 0.0896,-0.0965 0.27561,-0.28938 0.558107,-0.57877 0.16536,0.15158 0.492637,0.44786 0.981844,0.88883 0.475417,-0.48231 1.433144,-1.45038 2.873185,-2.9042067 -0.19293,-0.1378 -0.399627,-0.25493 -0.620117,-0.3514 -0.220477,-0.0896 -0.461637,-0.15158 -0.723467,-0.18603 0.813037,-0.25494 2.029151,-0.6339 3.648331,-1.13688 -0.186039,0.60633 -0.564996,1.82245 -1.136873,3.6483467 -0.0276,-0.26872 -0.0965,-0.5271 -0.2067,-0.77515 -0.0758,-0.17914 -0.18604,-0.3651667 -0.330727,-0.5580967 z"
       id="path31"
       aria-label="ƒ Ɠ Ɣ ƕ Ɩ Ɨ Ƙ ƙ ƚ ƛ Ɯ Ɲ"
       inkscape:label="sag"
       sodipodi:nodetypes="cccccccccccccccccc" />
    <path
       style="font-size:10.5833px;font-family:'open sans light astro';-inkscape-font-specification:'open sans light astro Light';fill:#ffffff;stroke:#000000;stroke-width:0.185208;stroke-linecap:round;stroke-linejoin:round;stroke-miterlimit:0;stroke-dasharray:none;stroke-opacity:1"
       d="m -61.659289,5.6969075 c 0.32384,-0.4203 0.97496,-1.2608967 1.953368,-2.5217967 h -4.547515 v -0.88883 h 6.376862 c -0.4203,0.53743 -1.25402,1.6123 -2.501146,3.2245967 h 0.062 c 0.661459,0 1.233336,0.23771 1.715666,0.71313 0.47542,0.47542 0.71313,1.05075 0.71313,1.72599 0,0.66835 -0.23771,1.23678 -0.71313,1.70531 -0.47543,0.4754295 -1.047317,0.7131365 -1.715666,0.7131365 -0.661449,0 -1.233339,-0.237707 -1.715649,-0.7131365 -0.47542,-0.47542 -0.71313,-1.04386 -0.71313,-1.70531 0,-0.32384 0.062,-0.63734 0.18603,-0.94051 -0.647667,0.3514 -1.209217,0.88883 -1.684637,1.6123 -0.46853,0.73036 -0.75792,1.4917195 -0.868161,2.2840865 h -0.83716 c 0.0413,-0.34451 0.1068,-0.67179 0.19637,-0.9818465 0.0896,-0.31695 0.2136,-0.64078 0.37207,-0.97151 0.27561,-0.58567 0.633901,-1.11966 1.074871,-1.60197 0.41341,-0.46164 0.87505,-0.83715 1.384917,-1.12654 0.37896,-0.22049 0.79926,-0.39619 1.2609,-0.5271 z m 0.0827,1.37459 c -0.19292,0.26183 -0.28938,0.55466 -0.28938,0.8785 0,0.40652 0.15158,0.76136 0.45475,1.06453 0.30316,0.29627 0.66834,0.44441 1.095529,0.44441 0.4203,0 0.785479,-0.14814 1.095536,-0.44441 0.30317,-0.29628 0.45476,-0.65112 0.45476,-1.06453 0,-0.4203 -0.15504,-0.77859 -0.46509,-1.07487 -0.303167,-0.30317 -0.664906,-0.45475 -1.085206,-0.45475 -0.509869,0 -0.930169,0.21704 -1.260899,0.65112 z"
       id="path32"
       aria-label="ƒ Ɠ Ɣ ƕ Ɩ Ɨ Ƙ ƙ ƚ ƛ Ɯ Ɲ"
       inkscape:label="cap"
       sodipodi:nodetypes="scccccscscscsccccccccsscscscscsc" />
    <path
       style="font-size:10.5833px;font-family:'open sans light astro';-inkscape-font-specification:'open sans light astro Light';fill:#ffffff;stroke:#000000;stroke-width:0.185208;stroke-linecap:round;stroke-linejoin:round;stroke-miterlimit:0;stroke-dasharray:none;stroke-opacity:1"
       d="m -52.714079,6.6374175 c 0.2067,0 0.38585,0.0792 0.53743,0.23771 0.15848,0.15159 0.29973,0.33762 0.42375,0.55811 0.14469,0.28249 0.27561,0.57188 0.39274,0.86816 0.10335,0.28249 0.19637,0.42374 0.27906,0.42374 0.0758,0 0.15847,-0.11369 0.24804,-0.34106 0.0689,-0.15847 0.12058,-0.2825 0.15503,-0.37207 l 0.18604,-0.37207 c 0.13091,-0.26183 0.27216,-0.4892 0.42374,-0.68213 0.17225,-0.21359 0.36862,-0.32039 0.58911,-0.32039 0.19981,0 0.37207,0.0827 0.51676,0.24805 0.15159,0.16536 0.28594,0.36517 0.403077,0.59944 0.14469,0.28939 0.26871,0.56844 0.37207,0.83716 0.103347,0.26871 0.203257,0.40307 0.299717,0.40307 0.0965,0 0.19292,-0.12747 0.289387,-0.3824 0.0413,-0.11713 0.0896,-0.2446 0.14469,-0.38241 0.062,-0.14469 0.12747,-0.28594 0.19637,-0.42374 0.117129,-0.24116 0.251487,-0.45131 0.403067,-0.63045 0.15159,-0.17915 0.334179,-0.26872 0.547769,-0.26872 0.22049,0 0.40997,0.0965 0.56844,0.28939 0.1447,0.17914 0.27561,0.39273 0.39274,0.64078 0.0758,0.17225 0.18948,0.43064 0.34106,0.77515 0.11025,0.24115 0.22738,0.36173 0.3514,0.36173 v 0.91984 c -0.21359,0 -0.39963,-0.0896 -0.5581,-0.26872 -0.15158,-0.17914 -0.28939,-0.38929 -0.41341,-0.63045 -0.0758,-0.14469 -0.1447,-0.2825 -0.20671,-0.41341 -0.062,-0.13091 -0.11713,-0.25838 -0.16536,-0.3824 -0.11024,-0.26183 -0.2067,-0.39274 -0.28939,-0.39274 -0.0758,0 -0.16536,0.11369 -0.26871,0.34106 -0.0758,0.16537 -0.189479,0.41341 -0.341069,0.74414 -0.12402,0.25493 -0.265268,0.48575 -0.423737,0.69246 -0.15848,0.19981 -0.341067,0.29972 -0.547767,0.29972 -0.19293,0 -0.372067,-0.093 -0.537427,-0.27905 -0.15848,-0.18603 -0.303167,-0.40652 -0.434077,-0.66145 -0.062,-0.12403 -0.12747,-0.2515 -0.19637,-0.38241 -0.062,-0.13091 -0.12058,-0.26183 -0.1757,-0.39274 -0.10336,-0.24115 -0.19293,-0.36173 -0.26872,-0.36173 -0.0689,0 -0.15847,0.12747 -0.26872,0.3824 -0.11024,0.25494 -0.23771,0.52366 -0.3824,0.80615 -0.12402,0.24116 -0.26527,0.45131 -0.42375,0.63045 -0.15847,0.17225 -0.33761,0.25838 -0.53743,0.25838 -0.2136,0 -0.39619,-0.093 -0.54777,-0.27905 -0.1447,-0.19293 -0.27217,-0.41341 -0.38241,-0.66145 -0.0827,-0.16537 -0.20326,-0.4203 -0.36173,-0.76481 -0.10336,-0.24116 -0.2136,-0.36174 -0.33073,-0.36174 z m 0,-3.5966667 c 0.2067,0 0.38585,0.0792 0.53743,0.23771 0.15848,0.15847 0.29973,0.34451 0.42375,0.5581 0.15158,0.2825 0.27905,0.56844 0.3824,0.85783 0.11025,0.2824967 0.20671,0.4237467 0.2894,0.4237467 0.0758,0 0.15847,-0.11024 0.24804,-0.3307267 l 0.15503,-0.37207 c 0.0413,-0.0827 0.10335,-0.20671 0.18604,-0.37207 0.13091,-0.26183 0.27216,-0.49265 0.42374,-0.69246 0.17225,-0.20671 0.36862,-0.31006 0.58911,-0.31006 0.19981,0 0.37207,0.0792 0.51676,0.23771 0.14469,0.16537 0.27905,0.36518 0.403077,0.59944 0.14469,0.29628 0.26871,0.57533 0.37207,0.83716 0.103347,0.2687167 0.203257,0.4030767 0.299717,0.4030767 0.0965,0 0.19292,-0.13091 0.289387,-0.3927367 0.0965,-0.25494 0.21015,-0.52021 0.34106,-0.79582 0.117129,-0.23427 0.251487,-0.44097 0.403067,-0.62011 0.15159,-0.17915 0.334179,-0.26872 0.547769,-0.26872 0.22738,0 0.41341,0.093 0.55811,0.27905 0.15158,0.18603 0.28594,0.40307 0.40307,0.65112 0.0758,0.17225 0.18948,0.42719 0.34106,0.76481 0.11025,0.2480467 0.22738,0.3720667 0.3514,0.3720667 v 0.91984 c -0.21359,0 -0.39963,-0.0896 -0.5581,-0.26872 -0.15158,-0.17914 -0.28939,-0.39273 -0.41341,-0.64078 -0.0758,-0.14469 -0.1447,-0.282497 -0.20671,-0.4134067 -0.062,-0.13091 -0.11713,-0.25838 -0.16536,-0.38241 -0.10335,-0.25493 -0.19981,-0.3824 -0.28939,-0.3824 -0.0758,0 -0.16536,0.11369 -0.26871,0.34106 -0.0758,0.16537 -0.189479,0.41341 -0.341069,0.7441367 -0.12402,0.24805 -0.265268,0.47542 -0.423737,0.68213 -0.15848,0.20671 -0.341067,0.31006 -0.547767,0.31006 -0.19293,0 -0.372067,-0.093 -0.537427,-0.27906 -0.15848,-0.18603 -0.303167,-0.40652 -0.434077,-0.66145 -0.062,-0.12403 -0.12747,-0.251497 -0.19637,-0.3824067 -0.062,-0.13091 -0.12058,-0.26183 -0.1757,-0.39274 -0.10336,-0.24115 -0.19293,-0.36173 -0.26872,-0.36173 -0.0689,0 -0.15847,0.12747 -0.26872,0.3824 -0.11024,0.25494 -0.23771,0.5202097 -0.3824,0.7958167 -0.12402,0.24115 -0.26527,0.4513 -0.42375,0.63045 -0.15847,0.17915 -0.33761,0.26872 -0.53743,0.26872 -0.2136,0 -0.39619,-0.0965 -0.54777,-0.28939 -0.1447,-0.18603 -0.27217,-0.40307 -0.38241,-0.65112 -0.0827,-0.17226 -0.20326,-0.4271967 -0.36173,-0.7648067 -0.10336,-0.24805 -0.2136,-0.37207 -0.33073,-0.37207 z"
       id="path33"
       aria-label="ƒ Ɠ Ɣ ƕ Ɩ Ɨ Ƙ ƙ ƚ ƛ Ɯ Ɲ"
       inkscape:label="aqu"
       sodipodi:nodetypes="ccccsccscscssscccsscccccccscscccsccccssccscccccccccsccscscccsccsscccccccscsccssccccsscssccccc" />
    <path
       style="font-size:10.5833px;font-family:'open sans light astro';-inkscape-font-specification:'open sans light astro Light';fill:#ffffff;stroke:#000000;stroke-width:0.185208;stroke-linecap:round;stroke-linejoin:round;stroke-miterlimit:0;stroke-dasharray:none;stroke-opacity:1"
       d="m -32.433176,10.368444 h -0.43408 -0.22738 -0.682119 c -0.440972,-0.5512065 -0.782042,-1.1437665 -1.023192,-1.7776665 -0.12403,-0.31695 -0.22049,-0.60978 -0.28939,-0.87849 -0.0758,-0.33073 -0.11369,-0.64424 -0.11369,-0.94051 h -1.550287 c 0,0.34451 -0.0482,0.69246 -0.14469,1.04386 -0.0689,0.28249 -0.18603,0.61667 -0.3514,1.00252 -0.24115,0.5581 -0.55466,1.07486 -0.94051,1.5502865 h -1.34358 c 0.53054,-0.4892065 0.96118,-1.0645365 1.29191,-1.7259865 0.28938,-0.59255 0.46164,-1.21611 0.51676,-1.87068 h -1.30224 v -0.88883 h 1.30224 c -0.062,-0.66146 -0.23427,-1.2884667 -0.51676,-1.8810167 -0.31695,-0.64768 -0.74759,-1.21956 -1.29191,-1.71565 h 1.32291 c 0.38585,0.47542 0.7028,0.99218 0.95084,1.55028 0.26872,0.6339 0.43409,1.3160267 0.4961,2.0463867 h 1.560617 c 0,-0.31006 0.0413,-0.63734 0.12402,-0.98185 0.0689,-0.2756067 0.17915,-0.5960067 0.33073,-0.9611767 0.24805,-0.60634 0.57878,-1.15755 0.992192,-1.65364 h 1.322909 c -0.57188,0.50987 -1.019749,1.11965 -1.343579,1.82934 -0.254942,0.57877 -0.409972,1.1678767 -0.465092,1.7673267 h 1.302241 v 0.88883 h -1.302241 c 0,0.31006 0.0482,0.63045 0.14469,0.96118 0.0827,0.26183 0.21015,0.56499 0.382412,0.9095 0.31006,0.64767 0.737249,1.223 1.281569,1.7259865 z"
       id="path34"
       aria-label="ƒ Ɠ Ɣ ƕ Ɩ Ɨ Ƙ ƙ ƚ ƛ Ɯ Ɲ"
       inkscape:label="pis"
       sodipodi:nodetypes="ccccccccccccccccccccccccccccccccccc" />
  </g>
</svg>
